<svg xmlns="http://www.w3.org/2000/svg" xmlns:xlink="http://www.w3.org/1999/xlink" width="81.814" height="101.717" viewBox="0 0 81.814 101.717">
  <defs>
    <linearGradient id="linear-gradient" x1="0.5" x2="0.5" y2="1" gradientUnits="objectBoundingBox">
      <stop offset="0" stop-color="#f8d148"/>
      <stop offset="1" stop-color="#e2c562"/>
    </linearGradient>
  </defs>
  <path id="Path_4012" data-name="Path 4012" d="M81.814,49.3v3.119a35.068,35.068,0,0,1-13.5,27.625l-.271.207a50.949,50.949,0,0,1-6.7,4.157,60.031,60.031,0,0,0-10,6.518,62.774,62.774,0,0,0-10.438,10.792A62.77,62.77,0,0,0,30.468,90.925a60.032,60.032,0,0,0-10-6.518,50.951,50.951,0,0,1-6.7-4.157q-.135-.1-.271-.207A35.069,35.069,0,0,1,0,52.418V49.3A35.072,35.072,0,0,1,13.5,21.672q.135-.105.271-.208a51.1,51.1,0,0,1,6.705-4.157,59.733,59.733,0,0,0,9.994-6.516A62.747,62.747,0,0,0,40.907,0,62.775,62.775,0,0,0,51.345,10.791a59.919,59.919,0,0,0,10,6.518,51.08,51.08,0,0,1,6.7,4.158l.271.207A35.069,35.069,0,0,1,81.814,49.3Z" transform="translate(0 0)" fill="url(#linear-gradient)"/>
</svg>
