<svg xmlns="http://www.w3.org/2000/svg" width="642.407" height="858.19" viewBox="0 0 642.407 858.19">
  <g id="Group_5" data-name="Group 5" transform="translate(501.204 661.606) rotate(180)">
    <g id="main_shape_" data-name="main shape " transform="translate(-127.34 -102.606)" opacity="0.1">
      <g id="Layer_1" data-name="Layer 1" transform="translate(0 0)">
        <path id="Path_4" data-name="Path 4" d="M614.679,370.391v23.431c0,80.995-37.912,158.582-101.406,207.551q-1.032.795-2.039,1.555c-17.44,13.195-33.442,21.958-50.373,31.235-22.282,12.214-45.328,24.843-75.1,48.969a471.635,471.635,0,0,0-78.425,81.081,471.606,471.606,0,0,0-78.429-81.081c-29.775-24.126-52.817-36.755-75.1-48.969-16.935-9.277-32.928-18.041-50.373-31.235q-1.015-.76-2.034-1.555C37.908,552.4,0,474.816,0,393.822V370.391C0,289.4,37.908,211.809,101.411,162.827q1.015-.79,2.034-1.559c17.445-13.186,33.438-21.954,50.377-31.235,22.282-12.2,45.324-24.821,75.086-48.956A471.426,471.426,0,0,0,307.337,0a471.638,471.638,0,0,0,78.425,81.077c29.771,24.135,52.817,36.759,75.1,48.969,16.931,9.282,32.933,18.049,50.373,31.239l2.039,1.555C576.767,211.809,614.679,289.4,614.679,370.391Z" transform="translate(0 0)" fill="#f0fff9"/>
      </g>
    </g>
    <g id="main_shape_2" data-name="main shape " transform="translate(-127.34 -130.606)" opacity="0.1">
      <g id="Layer_1-2" data-name="Layer 1" transform="translate(0 0)">
        <path id="Path_4-2" data-name="Path 4" d="M614.679,370.391v23.431c0,80.995-37.912,158.582-101.406,207.551q-1.032.795-2.039,1.555c-17.44,13.195-33.442,21.958-50.373,31.235-22.282,12.214-45.328,24.843-75.1,48.969a471.635,471.635,0,0,0-78.425,81.081,471.606,471.606,0,0,0-78.429-81.081c-29.775-24.126-52.817-36.755-75.1-48.969-16.935-9.277-32.928-18.041-50.373-31.235q-1.015-.76-2.034-1.555C37.908,552.4,0,474.816,0,393.822V370.391C0,289.4,37.908,211.809,101.411,162.827q1.015-.79,2.034-1.559c17.445-13.186,33.438-21.954,50.377-31.235,22.282-12.2,45.324-24.821,75.086-48.956A471.426,471.426,0,0,0,307.337,0a471.638,471.638,0,0,0,78.425,81.077c29.771,24.135,52.817,36.759,75.1,48.969,16.931,9.282,32.933,18.049,50.373,31.239l2.039,1.555C576.767,211.809,614.679,289.4,614.679,370.391Z" transform="translate(0 0)" fill="#f0fff9"/>
      </g>
    </g>
    <g id="main_shape_3" data-name="main shape " transform="translate(-141.204 -196.583)">
      <g id="Layer_1-3" data-name="Layer 1" transform="translate(0 0)">
        <path id="Path_4-3" data-name="Path 4" d="M642.407,387.1v24.488c0,84.648-39.623,165.735-105.981,216.913q-1.079.831-2.131,1.625c-18.227,13.79-34.951,22.948-52.645,32.644-23.287,12.765-47.373,25.964-78.487,51.178A492.912,492.912,0,0,0,321.2,798.686a492.878,492.878,0,0,0-81.967-84.738c-31.118-25.214-55.2-38.413-78.491-51.178-17.7-9.7-34.414-18.854-52.645-32.644q-1.061-.794-2.126-1.625C39.618,577.322,0,496.235,0,411.587V387.1c0-84.644,39.618-165.735,105.985-216.927q1.061-.826,2.126-1.63c18.231-13.781,34.946-22.944,52.65-32.644,23.287-12.747,47.368-25.941,78.473-51.165A492.692,492.692,0,0,0,321.2,0a492.912,492.912,0,0,0,81.963,84.734c31.114,25.223,55.2,38.417,78.487,51.178,17.694,9.7,34.418,18.863,52.645,32.649l2.13,1.625C602.785,221.364,642.407,302.455,642.407,387.1Z" transform="translate(0 0)" fill="#f0fff9"/>
      </g>
    </g>
  </g>
</svg>
