<svg xmlns="http://www.w3.org/2000/svg" width="21.604" height="21.604" viewBox="0 0 21.604 21.604">
  <path id="Path_3975" data-name="Path 3975" d="M22.6,19.336V12.8A9.8,9.8,0,0,0,3,12.8v6.535M5.723,22.6A2.723,2.723,0,0,1,3,19.881V17.7a2.723,2.723,0,1,1,5.445,0v2.178A2.723,2.723,0,0,1,5.723,22.6Zm14.158,0a2.723,2.723,0,0,1-2.723-2.723V17.7a2.723,2.723,0,1,1,5.445,0v2.178A2.723,2.723,0,0,1,19.881,22.6Z" transform="translate(-2 -2)" fill="none" stroke="#e3fff0" stroke-linecap="round" stroke-linejoin="round" stroke-width="2"/>
</svg>
