<svg xmlns="http://www.w3.org/2000/svg" xmlns:xlink="http://www.w3.org/1999/xlink" width="43" height="53.461" viewBox="0 0 43 53.461">
  <defs>
    <linearGradient id="linear-gradient" x1="0.5" x2="0.5" y2="1" gradientUnits="objectBoundingBox">
      <stop offset="0" stop-color="#f8d148"/>
      <stop offset="1" stop-color="#e2c562"/>
    </linearGradient>
  </defs>
  <g id="Layer_2" data-name="Layer 2" transform="translate(0)">
    <g id="Layer_1" data-name="Layer 1" transform="translate(0 0)">
      <path id="Path_4" data-name="Path 4" d="M43,25.911V27.55a18.431,18.431,0,0,1-7.094,14.519l-.143.109a26.777,26.777,0,0,1-3.524,2.185,31.551,31.551,0,0,0-5.254,3.426A32.993,32.993,0,0,0,21.5,53.461a32.991,32.991,0,0,0-5.487-5.672,31.551,31.551,0,0,0-5.254-3.426,26.779,26.779,0,0,1-3.524-2.185l-.142-.109A18.431,18.431,0,0,1,0,27.55V25.911a18.433,18.433,0,0,1,7.094-14.52l.142-.109A26.858,26.858,0,0,1,10.761,9.1a31.4,31.4,0,0,0,5.253-3.425A32.979,32.979,0,0,0,21.5,0a32.994,32.994,0,0,0,5.486,5.672A31.493,31.493,0,0,0,32.24,9.1a26.846,26.846,0,0,1,3.524,2.185l.143.109A18.432,18.432,0,0,1,43,25.911Z" transform="translate(0 0)" fill="url(#linear-gradient)"/>
    </g>
  </g>
</svg>
