<svg xmlns="http://www.w3.org/2000/svg" width="407.92" height="314.866" viewBox="0 0 407.92 314.866">
  <g id="Layer_1" data-name="Layer 1" transform="translate(0.49 0.501)">
    <path id="Path_3915" data-name="Path 3915" d="M22.808,290.276a8.9,8.9,0,0,1,2.132.54c16.447,8.5,32.078,5.782,46.817-3.98,9.447-6.258,15.364-15.582,19.327-26.031,5.795-15.284,6.43-31.113,4.4-47.165a32.4,32.4,0,0,1,0-4.23c2.986-.509,5.722-.621,8.216-1.449,10.379-3.477,16.192-11.333,19.325-21.335a49,49,0,0,0,1.449-21.068,104.991,104.991,0,0,0-5.339-22.926,13.221,13.221,0,0,0-1.734-2.266c-.039,6.351-.033,11.716-.12,17.08a38.246,38.246,0,0,1-5.5,19.174,25.592,25.592,0,0,1-5.588,6.523c-6.929,5.747-16.068,4.288-21.018-3.2-1.055-1.6-1.738-3.421-2.635-5.122-.582-1.118-1.242-2.2-2.165-3.829-4.745,6.428-5.4,13.543-7,20.592,1.113,2.289,2.231,4.725,3.471,7.1,3.738,7.177,7.262,14.445,9.193,22.351,2.2,9.048,1.755,17.9-2.483,26.345a44.787,44.787,0,0,1-30.064,24.162c-14.152,3.6-26.786.217-36.513-11.128C10.7,253.1,8.622,244.071,8.3,234.671c-.517-15.29,3.611-29.648,9.371-43.609,7.44-18.028,17.347-34.733,27.806-51.118,2-3.129,4.255-7.072,6.956-9.592-.48.449,1.393,9.085,1.5,10.24q.586,6.252.621,12.543c.06,9.934-.569,20.253-3.27,29.853-2.591,9.245-6.792,17.943-11.36,26.36-3.578,6.592-7.159,13.193-10.41,19.95a110.8,110.8,0,0,0-9.909,31.515c2.3,2.643,2.3,2.643,4.928,3.725a3.28,3.28,0,0,0,.561-.987c2.69-16.954,9.474-32.37,17.655-47.281q5.273-9.615,10.172-19.429c4.408-8.831,7.657-18.16,8.638-27.951a132.606,132.606,0,0,0-1.48-36.958c-.565-3.123-1.343-6.416-3.622-8.632-.474-.457,9.029-12.951,9.876-14.218,2.521-3.777,4.917-7.639,7.084-11.629,5.236-9.644,9.154-20.157,10.043-31.089.457-5.644.05-11.548-2.6-16.556s-7.922-8.9-13.578-8.636c-6.115.284-11.053,5.1-14.452,10.192-5.319,7.972-8.742,17.653-8.537,27.38.257,12.134,2.62,23.889,4.872,35.76a3.866,3.866,0,0,0,.522,1.54,1.367,1.367,0,0,0,1.405.621c-.621.184-2.1,3.56-2.438,4.12q-1.6,2.649-3.2,5.29l-6.376,10.5c-4.2,6.947-8.365,13.922-12.353,20.993C17.664,173.626,9.578,190.209,4.4,208.024c-4.688,16.111-5.938,32.43-2.254,48.932,2.848,12.757,8.369,23.9,19.39,31.683A6.488,6.488,0,0,1,22.808,290.276Zm28.1-206.832c-.414-9.389.859-18.926,5.49-27.216,1.978-3.537,4.085-6.757,7.775-8.6a8.644,8.644,0,0,1,8.278.459c2.2,1.192,3.456,3.773,4.389,6.045A28.755,28.755,0,0,1,77.879,71.3c-1.72,7.56-5.728,14.11-9.584,20.726-3.947,6.763-8.309,13.245-12.841,19.679.592-.84-.906-5.673-1.089-6.78-1.062-6.416-2.85-12.67-3.311-19.207C50.985,84.955,50.94,84.2,50.911,83.444ZM22.74,290.253a.209.209,0,0,0,.068.015.546.546,0,0,0,.072.108.528.528,0,0,1-.054-.014,1.042,1.042,0,0,1-.087-.108Zm86.42-17.7c2.341-5.954,1.467-9.543-3.458-13.659-1.308-1.093-2.653-2.14-4.47-3.6,2.614-3.793,5.1-7.349,7.527-10.944,2.308-3.421,2.276-3.442,1.921-8.833l-10.555-6.978c2.521-6.192,6.356-11.151,9.9-17.221,3.384,2.1,6.155,3.471,8.52,5.354,4.781,3.8,5.795,7.626,3.286,13.231-1.79,4-4.224,7.711-6.581,11.927,1.058.772,2.4,1.714,3.7,2.709,5.553,4.245,6.751,9.545,3.237,15.679A57.551,57.551,0,0,1,108.6,276.147a20.215,20.215,0,0,1,.561-3.591ZM93.972,307.571a71.436,71.436,0,0,0,4.6-5.735c-3.6-.743-5.764,1.1-8.158,1.96-4.685,1.687-9.3,3.584-14.06,5.031-2.32.706-4.967.969-7.266-1.747,1.863-4.71,3.607-9.147,5.474-13.88,5.964,1.517,11.149-.348,16.318-2.423A77.891,77.891,0,0,1,99.03,287.9a40.878,40.878,0,0,1,5.755-.846,5.261,5.261,0,0,1,1.73,5.642c-1.149,5.873-4.261,10.712-7.906,15.2-5.141,6.333-12.355,9.313-20.82,12.589,1.418-3.433,3.632-4.1,5.381-5.232,1.937-1.242,3.949-2.4,5.836-3.725a33.147,33.147,0,0,0,4.965-3.945Zm-15.9-199.949c1.817-4.743,3.568-9.313,5.439-14.2,7.115,1.829,13.011-1.325,19.127-3.4,2.181-.739,4.278-1.792,6.5-2.316a28.372,28.372,0,0,1,5.335-.306,9.177,9.177,0,0,1,.321,8.338c-3.245,8.253-7.935,15.36-16.091,19.609-3.833,2-7.628,4.079-11.983,4.923,2.709-4.2,7.45-5.532,11.1-8.353s7.5-5.352,9.46-10.335c-3.05-.1-5.284,1.428-7.672,2.363-4.106,1.61-8.144,3.431-12.337,4.76C84.4,109.63,81.3,109.946,78.067,107.622Zm35.853,11.687c7.4-3.593,13.607-8.475,17.91-15.935-.671,2.314-1.167,4.694-2.038,6.927-4.174,10.7-12.25,17.457-22.51,21.937-4.224,1.844-8.613,3.375-12.672,5.528-8.773,4.652-16.5,10.6-22.086,20.515.014-2.337-.25-3.576.072-4.638,2.825-9.329,9.489-15.741,16.97-21.285a103.164,103.164,0,0,1,12.912-7.575C106.2,122.8,110.114,121.151,113.92,119.309ZM135.2,169.827c2.374-6.128,6.316-11.062,9.551-16.691a23.856,23.856,0,0,1,9.236,5.006c4.168,3.671,5.163,7.221,3.233,12.394-2.672,7.165-7.62,12.761-13.326,18.044.882-3.518,1.765-7.051,2.831-11.308Zm-104.348,36.6,2.9-7.7c-1.049-6.757-8.032-6.941-11.666-11.076L32,171.5c3.957,1.546,7.521,3.264,10.348,6.244,2.531,2.69,3.615,5.588,2.454,9.462-2.4,8-7.732,13.885-12.808,20Zm31.383,49.669c.172-9.106-.1-17.7-5.815-25.207l-4.536-.828c-2.465-3.783-2.668-7.326-.238-11.072,3.088-1.144,5.114.414,6.788,2.715a35.268,35.268,0,0,1,6.43,17.591,55.129,55.129,0,0,1,0,5.548l.764.027c.476-5.141.788-10.3,1.478-15.414a96.073,96.073,0,0,1,2.523-12.933c.805-2.9,2.181-5.795,5.542-6.726,4.661,3.15,5.147,5.553,2.161,11.3l-3.818-.248c-.3.346-.871.724-1.006,1.223-1.035,3.856-2.136,7.7-2.92,11.612-.979,4.872-1.486,9.845-2.566,14.694-.6,2.7-1.254,5.646-4.785,7.713Zm102.291,83.171c.155-8.148-.085-15.834-5.2-22.558l-4.058-.741c-2.206-3.386-2.386-6.554-.207-9.907,2.763-1.022,4.576.379,6.072,2.43a31.545,31.545,0,0,1,5.755,15.743c.166,1.637,0,3.311,0,4.967l.683.025c.424-4.6.706-9.216,1.322-13.789a85.886,85.886,0,0,1,2.256-11.573c.722-2.589,1.952-5.174,4.967-6.018,4.17,2.819,4.6,4.967,1.933,10.114l-3.415-.223c-.265.31-.78.65-.9,1.095-.925,3.45-1.912,6.892-2.614,10.389-.875,4.361-1.329,8.808-2.3,13.144C168.268,334.777,167.687,337.414,164.528,339.262ZM123.965,216.515a6.555,6.555,0,0,1-.151-2.277,36.343,36.343,0,0,1,7.165-18.386.538.538,0,0,1,.5-.141c.149.064.232.29.346.445-1.426,5.5-5.735,10.621-2.308,16.883,3.191.557,4.346-2.637,7.061-3.849a18.4,18.4,0,0,1-4.416,9.6c-1.242,1.343-2.672,2.227-4.574,1.784C125.456,220.075,124.508,218.426,123.965,216.515ZM15.192,228.27a38.3,38.3,0,0,1,7.4-17.177c-.948,5.822-5.083,11.382-1.413,18.295l6.581-4.677c-.828,4.125-2.134,7.419-4.9,9.952-2.651,2.425-5.5,1.9-6.9-1.405A9.563,9.563,0,0,1,15.192,228.27ZM136.521,123.552c-.486,5.575-5,10.7-1.36,17.537l6.159-3.574c-1.124,6.024-2.69,8.38-7.072,10.762-4.1-1.656-5.7-3.752-5.137-7.6a37.7,37.7,0,0,1,7.409-17.132ZM87.931,76.757a36.949,36.949,0,0,1,7.5-17.047c-.873,5.457-4.739,10.457-2.194,16.749,3.382-.288,3.382-.288,7.254-3.241-1.188,5.476-2.848,9.777-8.115,11.554C88.622,83.158,87.335,80.195,87.931,76.757Zm6.132,82.949c-.025,4.151,3.365,6.118,7.165,4.443a7.707,7.707,0,0,0,4.859-7.2c.192-3.831-1.947-5.964-5.122-7.382L99,150.677q.534-1.974,1.07-3.953C96.312,150.352,94.094,154.63,94.063,159.706Zm10.579-2.587c-1.577,3.771-4.1,3.3-6.8,2.628-2.014-3.311-.975-6.1,1.035-8.781a5.935,5.935,0,0,0,.991,2.21C101.337,154.586,103,155.789,104.642,157.12ZM58.452,297.91c-.234,5.878-4.367,10.255-.954,15.522l5.548-3.651c-1.676,4.6-2.922,8.059-6.734,9.607-3.491-1.068-3.945-3.562-3.75-6.447C52.91,307.8,55.447,303.527,58.452,297.91ZM194.93,238.852c6.865-25.137,1.095-46.927-17.9-64.723-5.259-4.944-8.363-9.512-6.087-16.887,1.049-3.4,1-7.152,1.484-11.078,38.15,23.593,39.928,68.382,21.894,98.653C194.617,241.722,194.553,240.226,194.93,238.852Zm182.043-26.283c-4.76,3.4-8.651,8.017-12.935,12.094-1.1,1.047-2.815,3.185-3.214,2.962-4.859-2.69-5.637,2.092-7.243,4.178a87.539,87.539,0,0,0-7.181,11.784c-6.277,11.382-16.084,17.612-28.624,20.075-10.851,2.134-20.7.3-28.4-8.007-7.316-7.879-5.344-16.941-2.37-26.031,1.761-5.406,3.665-10.877,4.441-16.465,1.943-14-4.139-24.592-15.3-33.231a.985.985,0,0,1,.207-1.656c5.528-2.508,10.66-4.83,16.093-7.285a.983.983,0,0,1,1.374,1.07c-1.072,6.024-2.277,11.242-2.659,16.517-.96,13.531,5.844,24.137,17.256,26.979,11.958,2.978,23.14.906,31.155-8.816,5.211-6.318,8.7-14.073,12.852-21.236a39.408,39.408,0,0,0,2.276-5.174.985.985,0,0,1,1.616-.329c10.261,10.582,23.073,14.665,35.844,18.6,1.786.544,5.211-.869,6.44-2.483,10.611-13.843,11.043-32.6,1.484-47.5-7.512-11.709-14.454-13.322-24.516-3.918-10.269,9.6-22.67,17.618-27.525,32a22,22,0,0,1-2.726,4.493c-6.416,9.973-16.076,14.141-27.4,14.164a23.865,23.865,0,0,1-12.308-3.709c-6.718-4.346-6.658-11.612-6.538-18.876.1-6.4,5.054-6.914,9.042-8.657,14.28-6.227,28.255-13.386,43-18.162,12.8-4.156,13.558-14.539,17.695-25.015a.989.989,0,0,0-.793-1.347c-17.721-2.154-34.23-4.967-50.838-5.861q-43.678-2.363-87.463-2.539c-14.031-.048-22.672,8.243-26.252,21.678-3.725,14-.106,24.994,11.608,32.674,9,5.9,18.419,11.153,28.442,17.128a.989.989,0,0,1,.145,1.589c-21.908,19.4-33.748,43.895-39.621,71.7-.242,1.126-1.192,2.69-2.148,2.995-2.707.875-5.408,1.821-8.123,2.709a13.05,13.05,0,0,1-12.991-2.877l-.056-.052a73.367,73.367,0,0,1-10.066-11.513c-.277-.4-.548-.8-.813-1.192-.383-.584-.76-1.165-1.124-1.749-.621-.991-1.194-1.983-1.736-2.993a56.33,56.33,0,0,1-5.782-15.865q-2.844-14.029,1.242-29.969h0c.11-.424.224-.853.337-1.275.377-1.372.313-2.868.621-5.962a50.956,50.956,0,0,0-3.148,6.393L158.09,198l-.01.012a78.771,78.771,0,0,0-9.089,11.865c-5.795,9.805-9.659,20.476-13.1,31.31-4.65,14.636-9.013,29.387-14.381,43.752-4.745,12.693-11.589,24.319-22.156,33.332-23.669,20.168-52.73,11.382-65.321-7.407-3.6-5.366-6.1-11.467-9.052-17.138-.849-1.08-1.749-2.212-2.647-3.359-1.047-.234-2.1-.474-3.371-.764a11.243,11.243,0,0,0-.176,2.308c.279,2.09.621,4.183,1.022,6.252,3.518,18.092,12.138,33.146,26.981,44.288,11.176,8.4,23.686,11.693,37.537,8.438,9.06-2.123,16.585-7.036,23.309-13.27,12.773-11.842,20.753-26.6,25.755-43.071,3.353-11.02,6.209-22.185,9.625-33.179,2.61-8.458,5.565-16.786,9.884-24.491a66.455,66.455,0,0,0,11.589,30.439c.052.072.106.153.166.228.828,1.18,1.72,2.345,2.653,3.485.207.263.43.517.648.778.286.344.577.685.875,1.02.207.248.43.5.656.739q.724.805,1.49,1.6c.8.828,1.631,1.656,2.483,2.45,0,0,2.612,2.128,4.868,3.961a14.878,14.878,0,0,0,15.122,2.177c2.026-.846,4.466-1.875,6.236-2.643a1,1,0,0,1,1.382.878c.114,3.084.207,5.685.315,8.278,1.625,39.456,28.822,65.4,68.239,64.739,30.741-.517,55.878-13.452,76.451-35.791a146.917,146.917,0,0,0,31.871-54.292c4.632,1.411,8.93,3.284,13.39,3.87,2.426.317,6.182-.741,7.541-2.539,10.329-13.626,8.909-38.27-2.5-50.931-5.586-6.2-12.637-7.585-19.4-2.75Zm3.017-52.69c7.392,1.213,9.416,7.912,12.076,13.659a.991.991,0,0,1-.166,1.08c-.267.31-.621.621-.437.929q-12.668-5.9-25.356-11.813c4.416.161,9.592-4.543,13.883-3.845ZM215.207,145.185a37.946,37.946,0,0,1-4.861-3.781.985.985,0,0,1,.139-1.62c3.555-2.014,6.349-4.071,9.452-4.77,6.374-1.449,12.995-2.806,19.472-2.632,29.133.772,58.255,2.084,87.378,3.237a6.592,6.592,0,0,1,1.426.269.987.987,0,0,1,.143,1.863c-12.024,5.074-22.972,9.449-33.647,14.418-10.513,4.9-20.631,10.625-31.027,15.764-1.672.828-4.365,1.36-5.815.59-14.323-7.585-28.491-15.453-42.659-23.33Zm40.946,45.224a.983.983,0,0,1,1.155-.06c9.967,6.488,20.159,12.125,26.49,24.57a.991.991,0,0,1-.414,1.31c-22.8,12.512-45.284,24.834-67.748,37.165a2.812,2.812,0,0,1-3.053-.226l-.025-.019a2.833,2.833,0,0,1-1.014-2.972c6.722-25.681,24.383-43.481,44.609-59.762ZM372.826,264.69c-18.707,33.388-43.547,59.493-82.782,67.444-37.726,7.647-70.557-11.925-80.062-46.755-1.67-6.1-.942-9.472,5.412-12.748,19.868-10.236,39.216-21.449,58.76-32.3,1.091-.6,2.175-1.227,3.518-2a.989.989,0,0,1,1.476.931c-.519,7-1.339,13.208-1.144,19.387.563,17.459,12.806,28.905,30.29,28.5,14.748-.348,26.875-6,34.671-19.029,3.378-5.644,6.271-11.571,9.12-16.97a.985.985,0,0,1,1.43-.344l19.319,13.26c-.017-.221.174.308-.008.621Zm16.6-19.17c-7.167-2.9-13.729-5.54-20.784-8.394a1,1,0,0,1-.337-1.616c8.262-8.313,16.068-5.195,22.39,8.692a.985.985,0,0,1-1.269,1.325Zm-71.658-164.5c-17.494,6.709-34.6,14.412-52.328,21.908C268,95.592,272.732,91,279.676,88.167c17.74-7.243,35.348-14.8,53.375-21.447C329.692,73.752,324.982,78.256,317.763,81.023ZM198.345,98.456c-2.036,8.048-3.311,16.287-5.983,24.628-1.115-4.04-2.912-8.03-3.208-12.128-.621-8.446-8.651-10.348-12.926-15.476-4.067-4.878-3.725-9.228-1.993-15.671,11.1,7.231,15.315,17.469,18.518,27.165,2.8-7.483,5.126-15.729,8.93-23.241,3.034-5.989,10.114-6.378,12.624-1.242,1.219,2.508.174,6.113.151,9.708C204.661,87.051,200.853,88.545,198.345,98.456Zm151-2.018c3.2-2.483,6.265-5.128,10.248-8.413-8.976-3.419-14.516.962-20.224,5.006.3-11.211,12.765-20.615,23.272-17.575,1.271.366,2.866,2.759,2.792,4.129-.687,12.541-12.7,23.918-27.4,25.151C342.416,101.536,345.946,99.071,349.349,96.439ZM306.457,230.522c-.015,2.206-.493,4.553.091,6.581.551,1.916,2.219,3.518,3.4,5.248,1.089-2.07,2.761-4.044,3.1-6.229.383-2.411-.449-5.017-.909-8.827,5.567,4.437.973,12.233,8.808,14.822-.991-5.195-1.8-9.46-2.618-13.725l1.863-.246c2.276,5.608,6.173,11.283,1.157,17.2-1.014,1.2-4.675.145-8.485.12-.853.292-4.044,2.469-5.571,1.629-1.863-1.035-2.825-4.505-3.266-7.08-.528-3.067-.089-6.3-.07-9.462Zm65.317-95.439,16.745-15.232c-5.2-8.009-5.288-11.176.828-14.51a2.022,2.022,0,0,1,2.945,1.333c.886,4,1.765,7.976,2.653,11.989a2.016,2.016,0,0,1-3.311,1.945l-.048-.041-18.7,15.774Zm-11.6,67.641,3.355,7.614-2.337,1.308-5.621-1.691c-4.017,10.654-12.334,15.935-23.059,18.175,3.33-2.254,7.072-4.089,9.9-6.858,4.418-4.327,8.137-9.358,12.316-13.945A51.683,51.683,0,0,1,360.17,202.724ZM243.067,74.646c1.641-1.26,2.873-2.92,4.346-3.173,2.56-.439,5.269,0,7.914.058-.118,2.618.733,5.929-.548,7.713-2.97,4.139-6.966,7.533-10.555,11.231L242.983,89.4c1.656-1.987,3.657-3.791,4.876-6.02,1.062-1.943,1.956-4.522,1.519-6.513C249.154,75.861,245.816,75.542,243.067,74.646ZM196.759,304.353q-.031.894-.06,1.788l-6.482,3.278q-.739-5.606-1.476-11.213l2.368-.269C191.555,301.139,189.121,306.464,196.759,304.353Zm65.217,9.027c16.405-1.155,30.911-7.415,44.563-16.865a22.057,22.057,0,0,1-1.436,2,19.18,19.18,0,0,1-1.925,1.784c-12.721,10.878-27.641,16.73-44.069,18.833-8.485,1.084-16.368-1.863-17.09-6.622-1.171-7.728,5.437-10.056,10.594-13.173.745-.451,1.486-.911,2.227-1.364l-.174-1.366-10.863.466c3.506-2.724,5.608-5.534,8.142-6s5.5,1.418,8.278,2.277c-1.36,2.432-2.223,5.426-4.193,7.167-3.158,2.786-7.049,4.741-11.175,7.39C250.187,313.773,256.159,313.792,261.977,313.38ZM156.844,344.914c16.405-1.157,30.911-7.417,44.563-16.867a22.043,22.043,0,0,1-1.436,2,19.181,19.181,0,0,1-1.925,1.784c-12.721,10.878-27.641,16.73-44.069,18.833-8.485,1.084-16.368-1.863-17.09-6.623-1.171-7.728,5.437-10.056,10.594-13.173.745-.451,1.486-.911,2.227-1.364l-.174-1.366-10.863.466c3.506-2.724,5.608-5.534,8.142-6s5.5,1.418,8.278,2.277c-1.36,2.432-2.223,5.426-4.193,7.167-3.158,2.786-7.049,4.741-11.165,7.39C145.054,345.3,151.027,345.324,156.844,344.914Zm194.282-69.708,3.241,7.467-2.008,1.273-6.072-1.55c-3.82,10.472-11.889,15.8-22.459,18.123,1.554-1.122,3.092-2.276,4.667-3.359,1.8-1.242,3.932-2.169,5.4-3.725,3.984-4.207,7.626-8.736,11.54-13.013C347.165,278.531,349.22,276.936,351.126,275.205ZM249.082,223.339c-.207-3.667-.079-7.351-.046-12.452,3.5,3.411-1.347,10.969,7.668,8.733a54.1,54.1,0,0,1-5,4.777C251.292,224.709,249.1,223.771,249.082,223.339Z" transform="translate(0 -41.161)" fill="none" stroke="#155332" stroke-width="1"/>
  </g>
</svg>
