<svg id="Component_2_3" data-name="Component 2 – 3" xmlns="http://www.w3.org/2000/svg" xmlns:xlink="http://www.w3.org/1999/xlink" width="76.628" height="20.146" viewBox="0 0 76.628 20.146">
  <defs>
    <linearGradient id="linear-gradient" x1="-0.366" y1="0.5" x2="1.641" y2="0.576" gradientUnits="objectBoundingBox">
      <stop offset="0" stop-color="#e2c562"/>
      <stop offset="1" stop-color="#f8d148"/>
    </linearGradient>
  </defs>
  <g id="Layer_2" data-name="Layer 2">
    <g id="Layer_1" data-name="Layer 1">
      <path id="Path_3" data-name="Path 3" d="M11.09,20.145a6.479,6.479,0,0,1-2.945-.7l-.019-.01a8.427,8.427,0,0,1-2.933-2.51l-.048-.068a12.471,12.471,0,0,1-.986-1.669A14.43,14.43,0,0,0,2.681,12.8,14.586,14.586,0,0,0,.1,10.206a.172.172,0,0,1,0-.269,14.573,14.573,0,0,0,2.583-2.6A14.449,14.449,0,0,0,4.159,4.953a12.755,12.755,0,0,1,.985-1.669l.048-.068A8.427,8.427,0,0,1,8.126.7l.019-.01A6.478,6.478,0,0,1,11.09,0H65.6a6.475,6.475,0,0,1,2.945.7l.019.01A8.427,8.427,0,0,1,71.5,3.216l.048.068a12.813,12.813,0,0,1,.985,1.669,14.448,14.448,0,0,0,1.478,2.386,14.586,14.586,0,0,0,2.583,2.6.173.173,0,0,1,0,.269,14.229,14.229,0,0,0-4.062,4.985,12.705,12.705,0,0,1-.985,1.667l-.048.068a8.427,8.427,0,0,1-2.933,2.51l-.019.01a6.475,6.475,0,0,1-2.944.7Z" transform="translate(-0.033 0.002)" fill="url(#linear-gradient)"/>
    </g>
  </g>
  <text id="Next" transform="translate(19 14.573)" fill="#165735" font-size="14" font-family="Ubuntu"><tspan x="0" y="0">Next</tspan></text>
  <g id="icon_38_" transform="translate(53.531 2.956)">
    <path id="Path_3912" data-name="Path 3912" d="M277.161,1725.336a.472.472,0,0,1-.334-.806l2.97-2.97-2.97-2.97a.472.472,0,0,1,.667-.667l3.3,3.3a.473.473,0,0,1,0,.668l-3.3,3.3A.466.466,0,0,1,277.161,1725.336Z" transform="translate(-276.569 -1714.017)" fill="#165735"/>
  </g>
</svg>
