<svg xmlns="http://www.w3.org/2000/svg" width="19.77" height="18.38" viewBox="0 0 19.77 18.38">
  <path id="Path_3974" data-name="Path 3974" d="M10.885,18.993l-.089-.133a7.79,7.79,0,0,0-1.333-1.724,3.554,3.554,0,0,0-1.224-.655,7.789,7.789,0,0,0-2.174-.153H4.843a4.414,4.414,0,0,1-1.873-.194,1.777,1.777,0,0,1-.777-.777A4.415,4.415,0,0,1,2,13.484V5.843A4.415,4.415,0,0,1,2.194,3.97a1.777,1.777,0,0,1,.777-.777A4.415,4.415,0,0,1,4.843,3H5.2c1.99,0,2.986,0,3.746.387A3.554,3.554,0,0,1,10.5,4.94c.387.76.387,1.755.387,3.746m0,10.306V8.686m0,10.306.089-.133a7.79,7.79,0,0,1,1.333-1.724,3.553,3.553,0,0,1,1.224-.655,7.789,7.789,0,0,1,2.174-.153h1.221a4.414,4.414,0,0,0,1.873-.194,1.777,1.777,0,0,0,.777-.777,4.414,4.414,0,0,0,.194-1.873V5.843a4.414,4.414,0,0,0-.194-1.873,1.777,1.777,0,0,0-.777-.777A4.415,4.415,0,0,0,16.927,3h-.355c-1.99,0-2.986,0-3.746.387A3.554,3.554,0,0,0,11.272,4.94c-.387.76-.387,1.755-.387,3.746" transform="translate(-1 -2)" fill="none" stroke="#e3fff0" stroke-linecap="round" stroke-linejoin="round" stroke-width="2"/>
</svg>
