<svg xmlns="http://www.w3.org/2000/svg" width="25.361" height="23.412" viewBox="0 0 25.361 23.412">
  <path id="Path_3974" data-name="Path 3974" d="M13.681,24.025l-.117-.175a10.241,10.241,0,0,0-1.753-2.266,4.672,4.672,0,0,0-1.609-.861,10.24,10.24,0,0,0-2.858-.2H5.738a5.8,5.8,0,0,1-2.462-.255,2.336,2.336,0,0,1-1.021-1.021A5.8,5.8,0,0,1,2,16.783V6.738a5.8,5.8,0,0,1,.255-2.462A2.336,2.336,0,0,1,3.276,3.255,5.8,5.8,0,0,1,5.738,3h.467c2.617,0,3.925,0,4.925.509a4.672,4.672,0,0,1,2.042,2.042c.509,1,.509,2.308.509,4.925m0,13.55V10.476m0,13.55.117-.175a10.241,10.241,0,0,1,1.753-2.266,4.671,4.671,0,0,1,1.609-.861,10.24,10.24,0,0,1,2.858-.2h1.606a5.8,5.8,0,0,0,2.462-.255,2.336,2.336,0,0,0,1.021-1.021,5.8,5.8,0,0,0,.255-2.462V6.738a5.8,5.8,0,0,0-.255-2.462,2.336,2.336,0,0,0-1.021-1.021A5.8,5.8,0,0,0,21.624,3h-.467c-2.617,0-3.925,0-4.925.509A4.672,4.672,0,0,0,14.19,5.551c-.509,1-.509,2.308-.509,4.925" transform="translate(-1 -2)" fill="none" stroke="#e3fff0" stroke-linecap="round" stroke-linejoin="round" stroke-width="2"/>
</svg>
