<svg xmlns="http://www.w3.org/2000/svg" xmlns:xlink="http://www.w3.org/1999/xlink" width="566.13" height="197.204" viewBox="0 0 566.13 197.204">
  <defs>
    <linearGradient id="linear-gradient" x1="0.5" x2="0.5" y2="1" gradientUnits="objectBoundingBox">
      <stop offset="0" stop-color="#f8d148"/>
      <stop offset="1" stop-color="#e2c562"/>
    </linearGradient>
  </defs>
  <g id="Tab_Menu" data-name="Tab Menu" transform="translate(101.565 61.765)">
    <g transform="matrix(1, 0, 0, 1, -101.56, -61.77)">
      <path id="Rectangle-2" data-name="Rectangle" d="M0,0H422.13V53.2H0Z" transform="translate(72 70)" fill="#29774d"/>
    </g>
    <path id="Line" d="M0,.5H362.933" transform="translate(0 4.939)" fill="none" stroke="rgba(21,83,50,0.24)" stroke-linecap="round" stroke-width="1"/>
    <g id="Selected" transform="translate(172.979 5.439)">
      <path id="Line-2" data-name="Line" d="M0,.5H17.557" transform="translate(0 -0.5)" fill="none" stroke="#eecc54" stroke-linecap="round" stroke-width="2"/>
    </g>
    <g id="Layer_2" data-name="Layer 2" transform="translate(165 14.439)" opacity="0.42">
      <g id="Layer_1" data-name="Layer 1" transform="translate(0 0)">
        <path id="Path_4" data-name="Path 4" d="M33.516,20.2v1.278A14.366,14.366,0,0,1,27.986,32.79l-.111.085a20.871,20.871,0,0,1-2.747,1.7,24.591,24.591,0,0,0-4.095,2.67,25.716,25.716,0,0,0-4.276,4.421,25.714,25.714,0,0,0-4.276-4.421,24.592,24.592,0,0,0-4.1-2.67,20.872,20.872,0,0,1-2.747-1.7l-.111-.085A14.366,14.366,0,0,1,0,21.473V20.2A14.367,14.367,0,0,1,5.529,8.878l.111-.085a20.934,20.934,0,0,1,2.747-1.7,24.47,24.47,0,0,0,4.094-2.669A25.7,25.7,0,0,0,16.758,0a25.716,25.716,0,0,0,4.276,4.421,24.546,24.546,0,0,0,4.095,2.67,20.925,20.925,0,0,1,2.747,1.7l.111.085A14.366,14.366,0,0,1,33.516,20.2Z" transform="translate(0 0)" fill="url(#linear-gradient)"/>
      </g>
    </g>
    <g id="Layer_2-2" data-name="Layer 2" transform="translate(167.563 17.625)">
      <g id="Layer_1-2" data-name="Layer 1" transform="translate(0 0)">
        <path id="Path_4-2" data-name="Path 4" d="M28.391,17.107V18.19a12.169,12.169,0,0,1-4.684,9.586l-.094.072a17.68,17.68,0,0,1-2.327,1.443,20.831,20.831,0,0,0-3.469,2.262A21.784,21.784,0,0,0,14.2,35.3a21.782,21.782,0,0,0-3.622-3.745A20.832,20.832,0,0,0,7.1,29.29a17.681,17.681,0,0,1-2.327-1.443l-.094-.072A12.169,12.169,0,0,1,0,18.19V17.107A12.17,12.17,0,0,1,4.684,7.521l.094-.072A17.733,17.733,0,0,1,7.1,6.006a20.728,20.728,0,0,0,3.468-2.261A21.774,21.774,0,0,0,14.2,0a21.784,21.784,0,0,0,3.622,3.745,20.793,20.793,0,0,0,3.469,2.262,17.725,17.725,0,0,1,2.327,1.443l.094.072A12.169,12.169,0,0,1,28.391,17.107Z" transform="translate(0 0)" fill="url(#linear-gradient)"/>
      </g>
    </g>
    <g id="Group_8" data-name="Group 8" transform="translate(242 24.439)">
      <path id="Path_3968" data-name="Path 3968" d="M9.5,8.965c0-.477,0-.716.1-.849a.5.5,0,0,1,.365-.2c.166-.012.367.117.768.375l4.721,3.035c.348.224.523.336.583.478a.5.5,0,0,1,0,.389c-.06.142-.234.254-.583.478l-4.721,3.035c-.4.258-.6.387-.768.375a.5.5,0,0,1-.365-.2c-.1-.133-.1-.372-.1-.849Z" fill="none" stroke="#e3fff0" stroke-linecap="round" stroke-linejoin="round" stroke-width="2"/>
      <path id="Path_3969" data-name="Path 3969" d="M3,7.8a7.453,7.453,0,0,1,.327-3.162A3,3,0,0,1,4.638,3.327,7.453,7.453,0,0,1,7.8,3h8.4a7.453,7.453,0,0,1,3.162.327,3,3,0,0,1,1.311,1.311A7.453,7.453,0,0,1,21,7.8v8.4a7.453,7.453,0,0,1-.327,3.162,3,3,0,0,1-1.311,1.311A7.453,7.453,0,0,1,16.2,21H7.8a7.453,7.453,0,0,1-3.162-.327,3,3,0,0,1-1.311-1.311A7.453,7.453,0,0,1,3,16.2Z" fill="none" stroke="#e3fff0" stroke-linecap="round" stroke-linejoin="round" stroke-width="2"/>
    </g>
    <path id="Path_3970" data-name="Path 3970" d="M21,18V12A9,9,0,0,0,3,12v6m2.5,3A2.5,2.5,0,0,1,3,18.5v-2a2.5,2.5,0,0,1,5,0v2A2.5,2.5,0,0,1,5.5,21Zm13,0A2.5,2.5,0,0,1,16,18.5v-2a2.5,2.5,0,0,1,5,0v2A2.5,2.5,0,0,1,18.5,21Z" transform="translate(98 24.439)" fill="none" stroke="#e3fff0" stroke-linecap="round" stroke-linejoin="round" stroke-width="2"/>
    <path id="Path_3971" data-name="Path 3971" d="M12,21l-.1-.15a8.767,8.767,0,0,0-1.5-1.94,4,4,0,0,0-1.377-.737A8.766,8.766,0,0,0,6.575,18H5.2a4.968,4.968,0,0,1-2.108-.218,2,2,0,0,1-.874-.874A4.969,4.969,0,0,1,2,14.8V6.2a4.969,4.969,0,0,1,.218-2.108,2,2,0,0,1,.874-.874A4.969,4.969,0,0,1,5.2,3h.4c2.24,0,3.36,0,4.216.436a4,4,0,0,1,1.748,1.748C12,6.04,12,7.16,12,9.4M12,21V9.4M12,21l.1-.15a8.767,8.767,0,0,1,1.5-1.94,4,4,0,0,1,1.378-.737A8.766,8.766,0,0,1,17.425,18H18.8a4.968,4.968,0,0,0,2.108-.218,2,2,0,0,0,.874-.874A4.968,4.968,0,0,0,22,14.8V6.2a4.968,4.968,0,0,0-.218-2.108,2,2,0,0,0-.874-.874A4.969,4.969,0,0,0,18.8,3h-.4c-2.24,0-3.36,0-4.216.436a4,4,0,0,0-1.748,1.748C12,6.04,12,7.16,12,9.4" transform="translate(32 26.439)" fill="none" stroke="#e3fff0" stroke-linecap="round" stroke-linejoin="round" stroke-width="2"/>
    <path id="Path_3972" data-name="Path 3972" d="M21,15v1.2a7.453,7.453,0,0,1-.327,3.162,3,3,0,0,1-1.311,1.311A7.453,7.453,0,0,1,16.2,21H7.8a7.453,7.453,0,0,1-3.162-.327,3,3,0,0,1-1.311-1.311A7.453,7.453,0,0,1,3,16.2V15m14-5-5,5m0,0L7,10m5,5V3" transform="translate(306 24.439)" fill="none" stroke="#e3fff0" stroke-linecap="round" stroke-linejoin="round" stroke-width="2"/>
    <path id="Path_3973" data-name="Path 3973" d="M6.106,11.42h4.97m-3.1-8.844L3.767,5.853a2.7,2.7,0,0,0-.524.466,1.242,1.242,0,0,0-.2.4,2.7,2.7,0,0,0-.046.7v4.495a3.087,3.087,0,0,0,.135,1.31,1.242,1.242,0,0,0,.543.543,3.087,3.087,0,0,0,1.31.135h7.206a3.087,3.087,0,0,0,1.31-.135,1.242,1.242,0,0,0,.543-.543,3.087,3.087,0,0,0,.135-1.31V7.422a2.7,2.7,0,0,0-.046-.7,1.243,1.243,0,0,0-.2-.4,2.7,2.7,0,0,0-.524-.466L9.2,2.576a1.446,1.446,0,0,0-.448-.287.621.621,0,0,0-.325,0A1.446,1.446,0,0,0,7.981,2.576Z" transform="translate(173.167 26.751)" fill="#f8d148" stroke="#ebbd1b" stroke-linecap="round" stroke-linejoin="round" stroke-width="1"/>
  </g>
</svg>
