<svg xmlns="http://www.w3.org/2000/svg" width="398.919" height="307.924" viewBox="0 0 398.919 307.924">
  <g id="Layer_2" data-name="Layer 2" transform="translate(-19.51 -94.463)">
    <g id="Layer_1" data-name="Layer 1" transform="translate(0 23)">
      <path id="Path_3915" data-name="Path 3915" d="M22.3,284.765a8.7,8.7,0,0,1,2.084.528c16.083,8.312,31.368,5.654,45.782-3.892,9.238-6.12,15.024-15.237,18.9-25.455,5.667-14.945,6.288-30.425,4.3-46.122a31.688,31.688,0,0,1,0-4.137c2.92-.5,5.6-.607,8.034-1.417,10.149-3.4,15.834-11.082,18.9-20.863a47.914,47.914,0,0,0,1.417-20.6,102.668,102.668,0,0,0-5.221-22.419,12.929,12.929,0,0,0-1.7-2.216c-.038,6.211-.032,11.457-.117,16.7a37.4,37.4,0,0,1-5.379,18.75A25.026,25.026,0,0,1,103.839,180c-6.776,5.62-15.713,4.193-20.553-3.125-1.032-1.56-1.7-3.345-2.576-5.009-.569-1.093-1.214-2.147-2.117-3.744-4.64,6.286-5.278,13.243-6.848,20.136,1.089,2.238,2.182,4.62,3.394,6.944,3.655,7.018,7.1,14.126,8.99,21.857,2.155,8.848,1.716,17.5-2.429,25.763a43.8,43.8,0,0,1-29.4,23.627c-13.838,3.517-26.194.212-35.705-10.882-6.132-7.158-8.164-15.988-8.478-25.18-.506-14.952,3.531-28.992,9.164-42.645,7.275-17.629,16.963-33.965,27.191-49.987,1.957-3.06,4.161-6.915,6.8-9.38-.47.439,1.362,8.884,1.469,10.014q.573,6.114.607,12.266c.059,9.714-.557,19.8-3.2,29.193-2.534,9.04-6.642,17.546-11.108,25.777-3.5,6.446-7,12.9-10.18,19.509a108.349,108.349,0,0,0-9.69,30.818c2.244,2.584,2.244,2.584,4.819,3.643a3.208,3.208,0,0,0,.548-.965c2.631-16.579,9.265-31.654,17.265-46.235q5.157-9.4,9.947-19c4.311-8.635,7.488-17.759,8.447-27.333a129.673,129.673,0,0,0-1.447-36.14c-.552-3.054-1.313-6.274-3.542-8.441-.463-.447,8.83-12.665,9.657-13.9,2.465-3.693,4.808-7.47,6.927-11.372,5.12-9.431,8.951-19.711,9.821-30.4.447-5.519.049-11.293-2.542-16.19s-7.747-8.7-13.278-8.445c-5.98.277-10.809,4.989-14.132,9.967-5.2,7.8-8.548,17.263-8.348,26.774.251,11.865,2.562,23.36,4.764,34.969a3.78,3.78,0,0,0,.51,1.506,1.337,1.337,0,0,0,1.374.607c-.607.18-2.052,3.481-2.384,4.029q-1.564,2.59-3.133,5.173l-6.235,10.267c-4.11,6.794-8.18,13.614-12.08,20.529C17.273,170.7,9.366,186.913,4.3,204.333c-4.584,15.755-5.806,31.712-2.2,47.85,2.785,12.474,8.184,23.372,18.961,30.982A6.344,6.344,0,0,1,22.3,284.765ZM49.785,82.509c-.4-9.182.84-18.507,5.369-26.614,1.935-3.459,3.995-6.608,7.6-8.411a8.453,8.453,0,0,1,8.1.449c2.147,1.166,3.38,3.689,4.292,5.911a28.119,28.119,0,0,1,1.012,16.785c-1.682,7.393-5.6,13.8-9.372,20.268-3.859,6.614-8.125,12.952-12.557,19.244.579-.822-.886-5.547-1.065-6.63-1.038-6.274-2.787-12.389-3.238-18.783C49.857,83.986,49.813,83.249,49.785,82.509ZM22.237,284.743a.2.2,0,0,0,.067.014.533.533,0,0,0,.071.105.505.505,0,0,1-.053-.014,1.016,1.016,0,0,1-.085-.105Zm84.508-17.313c2.289-5.822,1.435-9.332-3.382-13.357-1.279-1.069-2.594-2.093-4.371-3.521,2.556-3.71,4.991-7.186,7.36-10.7,2.257-3.345,2.226-3.366,1.878-8.637L97.91,224.389c2.465-6.055,6.215-10.9,9.68-16.84,3.309,2.05,6.019,3.394,8.332,5.235,4.675,3.718,5.667,7.458,3.214,12.938-1.751,3.912-4.13,7.541-6.436,11.663,1.034.755,2.346,1.676,3.616,2.649,5.43,4.151,6.6,9.334,3.165,15.332A56.278,56.278,0,0,1,106.2,270.949a19.77,19.77,0,0,1,.548-3.511ZM91.893,301.678a69.856,69.856,0,0,0,4.5-5.608c-3.523-.727-5.636,1.075-7.978,1.917-4.582,1.649-9.1,3.505-13.749,4.92-2.269.69-4.857.947-7.105-1.708,1.821-4.606,3.527-8.945,5.353-13.573,5.832,1.483,10.9-.34,15.957-2.37a76.162,76.162,0,0,1,7.966-2.817,39.976,39.976,0,0,1,5.628-.828,5.145,5.145,0,0,1,1.692,5.517c-1.123,5.743-4.167,10.475-7.731,14.865C91.4,308.184,84.346,311.1,76.069,314.3c1.386-3.357,3.552-4.005,5.262-5.116,1.894-1.214,3.861-2.346,5.707-3.643a32.413,32.413,0,0,0,4.855-3.857ZM76.34,106.152c1.777-4.638,3.489-9.107,5.318-13.887,6.958,1.789,12.723-1.3,18.7-3.321,2.133-.722,4.183-1.753,6.361-2.265a27.744,27.744,0,0,1,5.217-.3,8.974,8.974,0,0,1,.314,8.154c-3.173,8.071-7.759,15.02-15.735,19.175-3.748,1.953-7.46,3.989-11.718,4.815,2.649-4.1,7.286-5.41,10.857-8.168s7.336-5.233,9.251-10.107c-2.983-.1-5.167,1.4-7.5,2.311-4.015,1.574-7.963,3.355-12.064,4.655C82.531,108.115,79.5,108.425,76.34,106.152ZM111.4,117.58c7.235-3.513,13.306-8.287,17.514-15.583-.656,2.263-1.141,4.59-1.993,6.774-4.082,10.463-11.979,17.07-22.012,21.452-4.13,1.8-8.423,3.3-12.391,5.405-8.579,4.549-16.131,10.37-21.6,20.062.014-2.285-.245-3.5.071-4.535,2.762-9.123,9.279-15.393,16.595-20.814a100.881,100.881,0,0,1,12.626-7.407C103.855,120.99,107.678,119.382,111.4,117.58Zm20.812,49.4c2.321-5.992,6.177-10.817,9.34-16.322a23.329,23.329,0,0,1,9.032,4.9c4.076,3.59,5.049,7.061,3.161,12.12-2.613,7.006-7.451,12.479-13.031,17.645.862-3.44,1.726-6.895,2.769-11.058ZM30.172,202.767l2.833-7.534c-1.026-6.608-7.854-6.788-11.408-10.831l9.69-15.785c3.869,1.512,7.354,3.191,10.119,6.106,2.475,2.631,3.536,5.464,2.4,9.253-2.352,7.828-7.561,13.577-12.525,19.554Zm30.688,48.57c.168-8.9-.093-17.307-5.687-24.649l-4.436-.81c-2.41-3.7-2.609-7.164-.233-10.827,3.019-1.119,5,.4,6.638,2.655a34.488,34.488,0,0,1,6.288,17.2,53.911,53.911,0,0,1,0,5.426l.747.026c.465-5.027.771-10.074,1.445-15.073a93.949,93.949,0,0,1,2.467-12.646c.787-2.833,2.133-5.667,5.42-6.577,4.558,3.08,5.033,5.43,2.113,11.052l-3.734-.243c-.289.338-.852.708-.984,1.2-1.012,3.77-2.089,7.532-2.856,11.355-.957,4.764-1.453,9.627-2.509,14.369-.591,2.639-1.226,5.521-4.679,7.543Zm100.028,81.331c.152-7.968-.083-15.484-5.088-22.059l-3.969-.725c-2.157-3.311-2.333-6.409-.2-9.688,2.7-1,4.475.37,5.938,2.376a30.847,30.847,0,0,1,5.628,15.395c.162,1.6,0,3.238,0,4.857l.668.024c.415-4.5.69-9.012,1.293-13.484a83.985,83.985,0,0,1,2.206-11.317c.706-2.532,1.908-5.059,4.857-5.885,4.078,2.756,4.5,4.857,1.89,9.89l-3.339-.219c-.259.3-.763.635-.88,1.071-.9,3.374-1.87,6.739-2.556,10.159-.856,4.264-1.3,8.613-2.244,12.853C164.546,328.282,163.977,330.861,160.889,332.668ZM121.223,212.637a6.409,6.409,0,0,1-.148-2.226,35.539,35.539,0,0,1,7.006-17.979.526.526,0,0,1,.486-.138c.146.063.227.283.338.435-1.394,5.377-5.608,10.386-2.257,16.51,3.121.544,4.25-2.578,6.905-3.764a17.991,17.991,0,0,1-4.319,9.392c-1.214,1.313-2.613,2.178-4.473,1.744C122.68,216.117,121.754,214.5,121.223,212.637ZM14.856,224.132a37.449,37.449,0,0,1,7.239-16.8c-.927,5.693-4.97,11.131-1.382,17.89l6.436-4.574c-.81,4.033-2.086,7.255-4.792,9.732-2.592,2.372-5.379,1.86-6.747-1.374A9.351,9.351,0,0,1,14.856,224.132ZM133.5,121.729c-.476,5.452-4.893,10.463-1.33,17.149l6.023-3.5c-1.1,5.891-2.631,8.194-6.915,10.524-4.013-1.619-5.569-3.669-5.023-7.435a36.864,36.864,0,0,1,7.245-16.753ZM85.986,75.97A36.132,36.132,0,0,1,93.318,59.3c-.854,5.337-4.634,10.226-2.145,16.378,3.307-.281,3.307-.281,7.093-3.169-1.162,5.355-2.785,9.56-7.935,11.3C86.662,82.229,85.4,79.331,85.986,75.97Zm6,81.114c-.024,4.06,3.291,5.982,7.006,4.345a7.537,7.537,0,0,0,4.752-7.045c.188-3.746-1.9-5.832-5.009-7.219l-1.925,1.089q.522-1.931,1.046-3.865C94.182,147.937,92.012,152.12,91.982,157.084Zm10.345-2.53c-1.542,3.687-4.009,3.224-6.648,2.57-1.969-3.238-.953-5.968,1.012-8.587a5.8,5.8,0,0,0,.969,2.161C99.1,152.077,100.725,153.253,102.327,154.555ZM57.159,292.231c-.229,5.747-4.27,10.028-.933,15.178l5.426-3.57c-1.639,4.5-2.858,7.881-6.585,9.394-3.414-1.044-3.857-3.483-3.667-6.3C51.739,301.9,54.221,297.724,57.159,292.231Zm133.459-57.752c6.713-24.581,1.071-45.889-17.5-63.291-5.142-4.835-8.178-9.3-5.952-16.514,1.026-3.329.973-6.994,1.451-10.833,37.306,23.071,39.044,66.869,21.409,96.471A43.944,43.944,0,0,1,190.618,234.479Zm178.016-25.7c-4.655,3.323-8.459,7.84-12.649,11.827-1.077,1.024-2.752,3.115-3.143,2.9-4.752-2.631-5.513,2.046-7.083,4.086a85.6,85.6,0,0,0-7.022,11.523c-6.138,11.131-15.729,17.222-27.991,19.63-10.611,2.087-20.238.3-27.772-7.83-7.154-7.7-5.225-16.567-2.317-25.455,1.722-5.286,3.584-10.637,4.343-16.1,1.9-13.689-4.048-24.048-14.958-32.5a.963.963,0,0,1,.2-1.619c5.405-2.453,10.424-4.723,15.737-7.124a.961.961,0,0,1,1.344,1.046c-1.048,5.891-2.226,10.993-2.6,16.152-.939,13.231,5.715,23.6,16.874,26.382,11.693,2.912,22.628.886,30.466-8.621,5.1-6.179,8.512-13.762,12.568-20.766a38.538,38.538,0,0,0,2.226-5.059.963.963,0,0,1,1.581-.322c10.034,10.348,22.563,14.34,35.052,18.186,1.747.532,5.1-.85,6.3-2.428,10.376-13.537,10.8-31.876,1.451-46.453-7.346-11.45-14.134-13.027-23.974-3.831-10.042,9.384-22.168,17.228-26.916,31.291a21.515,21.515,0,0,1-2.665,4.394c-6.274,9.752-15.721,13.828-26.8,13.851a23.336,23.336,0,0,1-12.035-3.627c-6.569-4.25-6.51-11.355-6.393-18.459.1-6.257,4.942-6.761,8.842-8.465,13.964-6.089,27.63-13.09,42.052-17.761,12.515-4.064,13.258-14.217,17.3-24.461a.967.967,0,0,0-.775-1.317c-17.329-2.107-33.473-4.857-49.714-5.731q-42.712-2.311-85.528-2.483c-13.721-.047-22.17,8.061-25.671,21.2-3.643,13.693-.1,24.441,11.351,31.951,8.8,5.772,18.011,10.906,27.813,16.749a.967.967,0,0,1,.142,1.554c-21.424,18.975-33,42.924-38.745,70.109-.237,1.1-1.166,2.631-2.1,2.928-2.647.856-5.288,1.781-7.943,2.649a12.762,12.762,0,0,1-12.7-2.813l-.055-.051a71.744,71.744,0,0,1-9.844-11.258c-.271-.387-.536-.779-.8-1.166-.374-.571-.743-1.139-1.1-1.71-.607-.969-1.168-1.939-1.7-2.926a55.084,55.084,0,0,1-5.654-15.514q-2.781-13.719,1.214-29.306h0c.107-.415.219-.834.33-1.247a45.441,45.441,0,0,0,.607-5.83,49.829,49.829,0,0,0-3.078,6.251l-2.115,3.331-.01.012a77.028,77.028,0,0,0-8.888,11.6c-5.667,9.589-9.445,20.023-12.814,30.618-4.547,14.312-8.813,28.737-14.063,42.784-4.64,12.412-11.333,23.781-21.666,32.595C74,331.864,45.587,323.274,33.275,304.9c-3.523-5.248-5.964-11.214-8.852-16.759-.83-1.056-1.71-2.163-2.588-3.285-1.024-.229-2.054-.463-3.3-.747a10.994,10.994,0,0,0-.172,2.257c.273,2.044.607,4.09,1,6.114,3.44,17.692,11.869,32.413,26.384,43.309,10.928,8.212,23.162,11.434,36.707,8.251,8.86-2.076,16.218-6.881,22.794-12.976,12.491-11.58,20.294-26.013,25.186-42.119,3.278-10.777,6.071-21.695,9.413-32.445,2.552-8.271,5.442-16.415,9.665-23.949a64.985,64.985,0,0,0,11.333,29.765c.051.071.1.15.162.223.81,1.154,1.682,2.293,2.594,3.408.2.257.421.506.633.761.279.336.565.67.856,1,.2.243.421.486.642.722q.708.787,1.457,1.568c.785.81,1.595,1.619,2.429,2.4,0,0,2.554,2.08,4.76,3.874a14.549,14.549,0,0,0,14.788,2.129c1.981-.828,4.367-1.834,6.1-2.584a.975.975,0,0,1,1.352.858c.111,3.015.2,5.559.308,8.1,1.589,38.583,28.185,63.951,66.729,63.307,30.061-.506,54.642-13.154,74.76-35a143.667,143.667,0,0,0,31.166-53.091c4.529,1.38,8.733,3.212,13.094,3.784,2.372.31,6.045-.725,7.375-2.483,10.1-13.324,8.712-37.423-2.443-49.8-5.462-6.065-12.357-7.417-18.971-2.69Zm2.951-51.525c7.229,1.186,9.208,7.737,11.809,13.357a.969.969,0,0,1-.162,1.056c-.261.3-.607.607-.427.909q-12.387-5.768-24.8-11.552c4.319.158,9.38-4.442,13.575-3.76ZM210.447,142.884a37.11,37.11,0,0,1-4.754-3.7.963.963,0,0,1,.136-1.585c3.477-1.969,6.209-3.981,9.243-4.665,6.233-1.417,12.707-2.744,19.042-2.574,28.489.755,56.967,2.038,85.445,3.165a6.446,6.446,0,0,1,1.394.263.965.965,0,0,1,.14,1.821c-11.758,4.962-22.464,9.24-32.9,14.1-10.281,4.788-20.175,10.39-30.34,15.415-1.635.809-4.268,1.33-5.687.577-14.006-7.417-27.861-15.111-41.716-22.814Zm40.04,44.223a.961.961,0,0,1,1.129-.059c9.746,6.344,19.714,11.857,25.9,24.026a.969.969,0,0,1-.4,1.281c-22.3,12.236-44.282,24.285-66.25,36.343a2.75,2.75,0,0,1-2.985-.221l-.024-.018a2.771,2.771,0,0,1-.992-2.906c6.573-25.113,23.844-42.519,43.622-58.44Zm114.092,72.639c-18.293,32.649-42.584,58.177-80.95,65.952-36.891,7.478-69-11.661-78.291-45.721-1.633-5.966-.921-9.263,5.292-12.466,19.428-10.01,38.348-20.974,57.461-31.581,1.067-.587,2.127-1.2,3.44-1.955a.967.967,0,0,1,1.443.911c-.508,6.84-1.309,12.916-1.119,18.959.55,17.072,12.523,28.266,29.62,27.873,14.421-.34,26.281-5.869,33.9-18.608,3.3-5.519,6.132-11.315,8.919-16.595a.963.963,0,0,1,1.4-.336l18.892,12.966c-.016-.217.17.3-.008.607ZM380.807,241c-7.008-2.833-13.426-5.418-20.325-8.208a.975.975,0,0,1-.33-1.581c8.079-8.129,15.712-5.08,21.9,8.5a.963.963,0,0,1-1.241,1.3ZM310.734,80.141C293.628,86.7,276.9,94.234,259.564,101.564c2.51-7.176,7.136-11.669,13.926-14.438,17.348-7.083,34.566-14.468,52.195-20.972C322.4,73.031,317.793,77.435,310.734,80.141ZM193.957,97.189c-1.991,7.87-3.238,15.927-5.851,24.083-1.091-3.95-2.847-7.852-3.137-11.859-.607-8.259-8.459-10.119-12.64-15.134-3.977-4.77-3.643-9.024-1.949-15.324,10.857,7.071,14.976,17.083,18.109,26.564,2.736-7.318,5.013-15.381,8.733-22.727,2.967-5.857,9.89-6.237,12.345-1.214,1.192,2.453.17,5.978.148,9.493C200.134,86.036,196.41,87.5,193.957,97.189Zm147.664-1.973c3.129-2.429,6.126-5.015,10.022-8.227-8.777-3.343-14.195.941-19.776,4.9.3-10.963,12.483-20.159,22.757-17.186,1.243.358,2.8,2.7,2.73,4.037-.672,12.264-12.42,23.389-26.8,24.595C334.842,100.2,338.294,97.79,341.621,95.216ZM299.679,226.333c-.014,2.157-.482,4.452.089,6.436.538,1.874,2.169,3.44,3.321,5.132,1.064-2.024,2.7-3.954,3.036-6.092.374-2.358-.439-4.906-.888-8.631,5.444,4.339.951,11.962,8.613,14.494-.969-5.08-1.765-9.251-2.56-13.422l1.821-.241c2.226,5.484,6.037,11.034,1.131,16.815-.992,1.17-4.572.142-8.3.117-.834.285-3.954,2.414-5.448,1.593-1.821-1.012-2.762-4.406-3.193-6.923-.516-3-.087-6.16-.069-9.253Zm63.872-93.328,16.374-14.895c-5.088-7.832-5.171-10.928.809-14.189a1.977,1.977,0,0,1,2.88,1.3c.866,3.912,1.726,7.8,2.594,11.724a1.971,1.971,0,0,1-3.238,1.9l-.047-.041-18.291,15.425ZM352.2,199.15l3.281,7.445-2.285,1.279-5.5-1.653c-3.928,10.418-12.062,15.583-22.549,17.773,3.256-2.2,6.915-4,9.678-6.707,4.321-4.232,7.957-9.151,12.043-13.636A50.542,50.542,0,0,1,352.2,199.15ZM237.691,73.906c1.6-1.232,2.809-2.856,4.25-3.1,2.5-.429,5.153,0,7.739.057-.115,2.56.716,5.8-.536,7.543-2.9,4.048-6.812,7.366-10.321,10.983l-1.214-1.054c1.619-1.943,3.576-3.708,4.768-5.887,1.038-1.9,1.912-4.422,1.485-6.369C243.643,75.094,240.378,74.782,237.691,73.906ZM192.407,298.531q-.03.874-.059,1.749l-6.338,3.206q-.722-5.482-1.443-10.965l2.315-.263C187.317,295.388,184.937,300.6,192.407,298.531Zm63.775,8.828c16.042-1.129,30.227-7.251,43.578-16.492a21.566,21.566,0,0,1-1.4,1.955,18.764,18.764,0,0,1-1.882,1.745c-12.44,10.637-27.029,16.36-43.094,18.416-8.3,1.06-16.006-1.821-16.712-6.476-1.145-7.557,5.316-9.833,10.36-12.881.729-.441,1.453-.89,2.178-1.334l-.17-1.336-10.623.455c3.428-2.663,5.484-5.412,7.961-5.869s5.379,1.386,8.1,2.226c-1.33,2.378-2.174,5.306-4.1,7.008-3.088,2.724-6.893,4.636-10.928,7.227C244.653,307.743,250.493,307.761,256.182,307.359ZM153.375,338.195c16.042-1.131,30.227-7.253,43.578-16.494a21.553,21.553,0,0,1-1.4,1.955,18.756,18.756,0,0,1-1.882,1.744c-12.44,10.637-27.029,16.36-43.094,18.416-8.3,1.06-16.006-1.821-16.712-6.476-1.145-7.557,5.316-9.833,10.36-12.881.729-.441,1.453-.89,2.178-1.334l-.17-1.336-10.623.455c3.428-2.663,5.484-5.412,7.961-5.869s5.379,1.386,8.1,2.226c-1.33,2.378-2.174,5.306-4.1,7.008-3.088,2.724-6.893,4.636-10.918,7.227C141.845,338.575,147.686,338.6,153.375,338.195ZM343.36,270.028l3.169,7.3-1.963,1.245-5.938-1.516C334.892,287.3,327,292.51,316.666,294.781c1.52-1.1,3.023-2.226,4.564-3.285,1.761-1.214,3.845-2.121,5.28-3.643,3.9-4.114,7.458-8.542,11.284-12.725C339.486,273.281,341.5,271.72,343.36,270.028Zm-99.788-50.72c-.2-3.586-.077-7.188-.045-12.177,3.426,3.335-1.317,10.726,7.5,8.54a52.9,52.9,0,0,1-4.891,4.671C245.733,220.649,243.594,219.732,243.572,219.309Z" transform="translate(20 30.803)" fill="none" stroke="#155332" stroke-width="1"/>
    </g>
  </g>
</svg>
