<svg xmlns="http://www.w3.org/2000/svg" width="626.679" height="784.07" viewBox="0 0 626.679 784.07">
  <g id="Layer_2" data-name="Layer 2" transform="translate(86 58.929)">
    <g id="Layer_1" data-name="Layer 1" transform="translate(-80 -49)">
      <path id="Path_4" data-name="Path 4" d="M614.679,370.391v23.431c0,80.995-37.912,158.582-101.406,207.551q-1.032.795-2.039,1.555c-17.44,13.195-33.442,21.958-50.373,31.235-22.282,12.214-45.328,24.843-75.1,48.969a471.639,471.639,0,0,0-78.425,81.081,471.6,471.6,0,0,0-78.429-81.081c-29.775-24.126-52.817-36.755-75.1-48.969-16.935-9.277-32.928-18.041-50.373-31.235q-1.015-.76-2.034-1.555C37.908,552.4,0,474.816,0,393.822V370.391C0,289.4,37.908,211.809,101.411,162.827q1.015-.79,2.034-1.559c17.445-13.186,33.438-21.954,50.377-31.235,22.282-12.2,45.324-24.821,75.086-48.956A471.426,471.426,0,0,0,307.337,0a471.636,471.636,0,0,0,78.425,81.077c29.771,24.135,52.817,36.759,75.1,48.969,16.931,9.282,32.933,18.049,50.373,31.239l2.039,1.555C576.767,211.809,614.679,289.4,614.679,370.391Z" transform="translate(0 0)" fill="none" stroke="#f8d148" stroke-width="12"/>
    </g>
  </g>
</svg>
