<svg id="Component_3_1" data-name="Component 3 – 1" xmlns="http://www.w3.org/2000/svg" width="67" height="18" viewBox="0 0 67 18">
  <g id="Component_4_1" data-name="Component 4 – 1">
    <g id="Component_5_1" data-name="Component 5 – 1">
      <g id="Rectangle_17" data-name="Rectangle 17" fill="#dff4eb" stroke="#29774d" stroke-width="1">
        <rect width="67" height="18" rx="3" stroke="none"/>
        <rect x="0.5" y="0.5" width="66" height="17" rx="2.5" fill="none"/>
      </g>
      <g id="play" transform="translate(7.97 5.294)">
        <g id="Shape" fill="none" stroke-linecap="round" stroke-linejoin="round">
          <path d="M0,0,5.765,3.706,0,7.412V0Z" stroke="none"/>
          <path d="M -1.430511474609375e-06 -9.5367431640625e-07 L -1.430511474609375e-06 7.412319183349609 L 5.765138149261475 3.706159114837646 L -1.430511474609375e-06 -9.5367431640625e-07 M -4.243850708007812e-05 -1 C 0.1884441375732422 -1 0.3764796257019043 -0.9467868804931641 0.5407581329345703 -0.8411808013916016 L 6.305898189544678 2.864979267120361 C 6.592118263244629 3.04897928237915 6.765138626098633 3.365899085998535 6.765138626098633 3.706159114837646 C 6.765138626098633 4.046419143676758 6.592118263244629 4.363339424133301 6.305898189544678 4.54733943939209 L 0.5407581329345703 8.253499031066895 C 0.2330489158630371 8.451309204101562 -0.1581110954284668 8.465319633483887 -0.479191780090332 8.290029525756836 C -0.8002614974975586 8.114739418029785 -1.000001430511475 7.778129100799561 -1.000001430511475 7.412319183349609 L -1.000001430511475 -9.5367431640625e-07 C -1.000001430511475 -0.3658108711242676 -0.8002614974975586 -0.7024211883544922 -0.479191780090332 -0.877711296081543 C -0.3295278549194336 -0.9594182968139648 -0.1646099090576172 -1 -4.243850708007812e-05 -1 Z" stroke="none" fill="#f8d148"/>
        </g>
      </g>
    </g>
    <text id="Last_Play" data-name="Last Play" transform="translate(21.888 12)" fill="#f4cf4d" font-size="10" font-family="Ubuntu-Medium, Ubuntu" font-weight="500"><tspan x="0" y="0">Last Play</tspan></text>
  </g>
</svg>
