<svg xmlns="http://www.w3.org/2000/svg" xmlns:xlink="http://www.w3.org/1999/xlink" width="115.019" height="80.472" viewBox="0 0 115.019 80.472">
  <defs>
    <linearGradient id="linear-gradient" y1="0.5" x2="1" y2="0.5" gradientUnits="objectBoundingBox">
      <stop offset="0" stop-color="#f8d148"/>
      <stop offset="0.71" stop-color="#d8b840"/>
      <stop offset="1" stop-color="#caad3c"/>
    </linearGradient>
    <linearGradient id="linear-gradient-2" x1="0" y1="0.501" x2="1.001" y2="0.501" xlink:href="#linear-gradient"/>
    <linearGradient id="linear-gradient-3" x1="-0.001" y1="0.5" x2="1" y2="0.5" xlink:href="#linear-gradient"/>
    <linearGradient id="linear-gradient-4" x1="-0.001" y1="0.499" x2="1" y2="0.499" xlink:href="#linear-gradient"/>
    <linearGradient id="linear-gradient-5" x1="-0.001" y1="0.499" x2="1" y2="0.499" xlink:href="#linear-gradient"/>
    <linearGradient id="linear-gradient-6" x1="0" y1="0.5" x2="1" y2="0.5" xlink:href="#linear-gradient"/>
    <linearGradient id="linear-gradient-7" x1="0" y1="0.5" x2="1" y2="0.5" xlink:href="#linear-gradient"/>
    <linearGradient id="linear-gradient-8" x1="0.002" y1="0.501" x2="1.001" y2="0.501" xlink:href="#linear-gradient"/>
    <linearGradient id="linear-gradient-9" x1="-0.001" y1="0.5" x2="1" y2="0.5" xlink:href="#linear-gradient"/>
    <linearGradient id="linear-gradient-10" x1="0" y1="0.5" x2="1" y2="0.5" xlink:href="#linear-gradient"/>
    <linearGradient id="linear-gradient-11" x1="0.002" y1="0.5" x2="1" y2="0.5" xlink:href="#linear-gradient"/>
    <linearGradient id="linear-gradient-12" x1="0" y1="0.5" x2="1" y2="0.5" xlink:href="#linear-gradient"/>
    <linearGradient id="linear-gradient-13" x1="0" y1="0.5" x2="1.001" y2="0.5" xlink:href="#linear-gradient"/>
    <linearGradient id="linear-gradient-14" x1="0" y1="0.5" x2="1" y2="0.5" xlink:href="#linear-gradient"/>
    <linearGradient id="linear-gradient-15" x1="-0.001" y1="0.499" x2="0.998" y2="0.499" xlink:href="#linear-gradient"/>
    <linearGradient id="linear-gradient-16" x1="0" y1="0.5" x2="1" y2="0.5" xlink:href="#linear-gradient"/>
    <linearGradient id="linear-gradient-17" x1="0" y1="0.497" x2="1" y2="0.497" xlink:href="#linear-gradient"/>
    <linearGradient id="linear-gradient-18" x1="0" y1="0.5" x2="1" y2="0.5" xlink:href="#linear-gradient"/>
    <linearGradient id="linear-gradient-19" x1="0" y1="0.5" x2="1" y2="0.5" xlink:href="#linear-gradient"/>
    <linearGradient id="linear-gradient-20" x1="0" y1="0.5" x2="1" y2="0.5" xlink:href="#linear-gradient"/>
    <linearGradient id="linear-gradient-21" x1="0" y1="0.496" x2="1" y2="0.496" xlink:href="#linear-gradient"/>
    <linearGradient id="linear-gradient-22" x1="0.003" y1="0.5" x2="1.003" y2="0.5" xlink:href="#linear-gradient"/>
    <linearGradient id="linear-gradient-24" x1="0" y1="0.5" x2="1" y2="0.5" xlink:href="#linear-gradient"/>
    <linearGradient id="linear-gradient-26" x1="0" y1="0.5" x2="1" y2="0.5" xlink:href="#linear-gradient"/>
    <linearGradient id="linear-gradient-27" x1="0" y1="0.5" x2="1" y2="0.5" xlink:href="#linear-gradient"/>
    <linearGradient id="linear-gradient-29" x1="0.009" y1="0.501" x2="1.009" y2="0.501" xlink:href="#linear-gradient"/>
    <linearGradient id="linear-gradient-30" x1="0" y1="0.502" x2="1" y2="0.502" xlink:href="#linear-gradient"/>
    <linearGradient id="linear-gradient-31" x1="0" y1="0.502" x2="1" y2="0.502" xlink:href="#linear-gradient"/>
    <linearGradient id="linear-gradient-32" x1="-0.007" y1="0.501" x2="0.995" y2="0.501" xlink:href="#linear-gradient"/>
    <linearGradient id="linear-gradient-35" x1="0" y1="0.499" x2="1" y2="0.499" xlink:href="#linear-gradient"/>
    <linearGradient id="linear-gradient-39" x1="0" y1="0.498" x2="0.995" y2="0.498" xlink:href="#linear-gradient"/>
    <linearGradient id="linear-gradient-43" x1="-0.001" y1="0.5" x2="1" y2="0.5" xlink:href="#linear-gradient"/>
    <linearGradient id="linear-gradient-48" x1="0" y1="0.499" x2="0.992" y2="0.499" xlink:href="#linear-gradient"/>
    <linearGradient id="linear-gradient-50" x1="0" y1="0.5" x2="0.998" y2="0.5" xlink:href="#linear-gradient"/>
    <linearGradient id="linear-gradient-53" x1="0" y1="0.499" x2="1" y2="0.499" xlink:href="#linear-gradient"/>
  </defs>
  <g id="Layer_2" data-name="Layer 2" transform="translate(0 0)">
    <g id="Layer_1" data-name="Layer 1" transform="translate(0 0)">
      <path id="Path_3916" data-name="Path 3916" d="M4.077,80.572a7.93,7.93,0,0,0,4.137,1.116H15a2.892,2.892,0,0,0,2.159-.907,3.035,3.035,0,0,0,.876-2.187V75.555a1.7,1.7,0,0,0,1.1.348h7.054a5.215,5.215,0,0,0,4.54-2.593,5.1,5.1,0,0,0,.7-2.6V61.27H27.322v9.435a1.078,1.078,0,0,1-.313.772,1.043,1.043,0,0,1-.786.348H19.138a1.043,1.043,0,0,1-.73-.285,1.137,1.137,0,0,1-.372-.7V61.36H13.93v15.06a1.123,1.123,0,0,1-1.161,1.161H8.215a4.012,4.012,0,0,1-2.086-.567A4.172,4.172,0,0,1,4.623,75.5a4.04,4.04,0,0,1-.549-2.051V68.129H0v5.316a8,8,0,0,0,1.1,4.12,8.281,8.281,0,0,0,2.976,3.007Z" transform="translate(0.001 -39.969)" fill="url(#linear-gradient)"/>
      <path id="Path_3917" data-name="Path 3917" d="M19.872,66.869a2.3,2.3,0,0,0,1.683-.7,2.256,2.256,0,0,0,.7-1.651,2.208,2.208,0,0,0-.7-1.637,2.34,2.34,0,0,0-4,1.627,2.284,2.284,0,0,0,.7,1.651A2.208,2.208,0,0,0,19.872,66.869Z" transform="translate(-11.448 -40.569)" fill="url(#linear-gradient-2)"/>
      <path id="Path_3918" data-name="Path 3918" d="M60.295,110.495a2.208,2.208,0,0,0-.7,1.637,2.242,2.242,0,0,0,.7,1.665,2.343,2.343,0,0,0,4-1.665,2.221,2.221,0,0,0-.7-1.637,2.35,2.35,0,0,0-3.317,0Z" transform="translate(-38.879 -71.634)" fill="url(#linear-gradient-3)"/>
      <path id="Path_3919" data-name="Path 3919" d="M79.156,109.81a2.284,2.284,0,0,0-1.651.7,2.208,2.208,0,0,0-.7,1.637,2.242,2.242,0,0,0,.7,1.665,2.343,2.343,0,0,0,4-1.665,2.222,2.222,0,0,0-.7-1.637A2.27,2.27,0,0,0,79.156,109.81Z" transform="translate(-50.106 -71.634)" fill="url(#linear-gradient-4)"/>
      <path id="Path_3920" data-name="Path 3920" d="M110.1,40.975a2.35,2.35,0,0,0-3.317,0,2.211,2.211,0,0,0-.7,1.637,2.239,2.239,0,0,0,.7,1.669,2.343,2.343,0,0,0,4-1.658A2.246,2.246,0,0,0,110.1,40.975Z" transform="translate(-69.206 -26.283)" fill="url(#linear-gradient-5)"/>
      <path id="Path_3921" data-name="Path 3921" d="M94.579,82.967a7.727,7.727,0,0,0,5.562-2.277,8.058,8.058,0,0,0,1.936-5.67V61.27H97.972V75.02a4.4,4.4,0,0,1-.494,2.277,2.945,2.945,0,0,1-1.53,1.22,10.777,10.777,0,0,1-2.889.553Z" transform="translate(-60.707 -39.969)" fill="url(#linear-gradient-6)"/>
      <path id="Path_3922" data-name="Path 3922" d="M196.794,62.832a7.04,7.04,0,0,0-2.618-2.677,7.2,7.2,0,0,0-3.72-.984h-7.443v9.348a1.338,1.338,0,0,1-.268.921,1.2,1.2,0,0,1-.921.3h-2.291a.921.921,0,0,1-.744-.313,1.255,1.255,0,0,1-.268-.848v-.716a8.9,8.9,0,0,0-.9-4.21,7.665,7.665,0,0,0-2.218-2.663,9.355,9.355,0,0,0-5.91-1.905,13.583,13.583,0,0,0-5.43,1.189l1.488,3.72a12.008,12.008,0,0,1,3.988-.772,5.354,5.354,0,0,1,3.365,1.012,4.518,4.518,0,0,1,1.589,3.869v.5a1.259,1.259,0,0,0,.177.657,1.513,1.513,0,0,0,.448.476H162.324a1.043,1.043,0,0,1-.772-.348,1.081,1.081,0,0,1-.327-.8V66.106a6.63,6.63,0,0,0-1.043-3.477A7.4,7.4,0,0,0,157.55,60.1a7.005,7.005,0,0,0-3.543-.939h-7.6v9.335a1.276,1.276,0,0,1-.313.921,1.154,1.154,0,0,1-.876.348h-1.342a3.049,3.049,0,0,1-1.964-.671,3.32,3.32,0,0,1-1.14-1.794l-.031-.09a.936.936,0,0,0-.059-.3L138.19,58.1l-3.9,1.1,2.409,8.691a1.737,1.737,0,0,1,.059.348,2.086,2.086,0,0,1-.817,1.307,1.328,1.328,0,0,1-.73.181H126.79v4.106h8.417a5.517,5.517,0,0,0,2.142-.431,6.258,6.258,0,0,0,1.877-1.206,7.332,7.332,0,0,0,4.641,1.637h1.342a5.013,5.013,0,0,0,3.869-1.815,6.825,6.825,0,0,0,2.2,1.37,7.818,7.818,0,0,0,2.74.445,6.428,6.428,0,0,0,2.454-.476,7.008,7.008,0,0,0,2.086-1.311,4.3,4.3,0,0,0,1.62,1.311,4.846,4.846,0,0,0,2.128.476h19.5a4.884,4.884,0,0,0,2.128-.49,5.368,5.368,0,0,0,1.773-1.356,7.113,7.113,0,0,0,2.173,1.356,6.8,6.8,0,0,0,2.559.49,7.255,7.255,0,0,0,3.57-.921,7.377,7.377,0,0,0,2.68-2.5,6.452,6.452,0,0,0,1.043-3.456v-.348a7.585,7.585,0,0,0-.935-3.779Zm-39.685,3.782a2.934,2.934,0,0,1-.942,2.228,3.588,3.588,0,0,1-2.5.907,3.056,3.056,0,0,1-2.173-.88,2.781,2.781,0,0,1-.921-2.086V63.308h3.094a3.633,3.633,0,0,1,2.434.789,2.816,2.816,0,0,1,.984,2.086Zm36.559.143a2.781,2.781,0,0,1-.98,2.086,3.358,3.358,0,0,1-2.232.893,3.477,3.477,0,0,1-2.291-.789,2.642,2.642,0,0,1-.984-2.086V63.28h3.129a3.383,3.383,0,0,1,2.4.893,2.934,2.934,0,0,1,.966,2.26Z" transform="translate(-82.711 -37.901)" fill="url(#linear-gradient-7)"/>
      <path id="Path_3923" data-name="Path 3923" d="M21.465,147.075a2.242,2.242,0,0,0-.7,1.637,2.284,2.284,0,0,0,.7,1.651,2.214,2.214,0,0,0,1.637.7,2.291,2.291,0,0,0,1.683-.7,2.256,2.256,0,0,0,.7-1.651,2.215,2.215,0,0,0-.7-1.637,2.319,2.319,0,0,0-1.683-.7A2.242,2.242,0,0,0,21.465,147.075Z" transform="translate(-13.549 -95.49)" fill="url(#linear-gradient-8)"/>
      <path id="Path_3924" data-name="Path 3924" d="M82.406,194a2.288,2.288,0,0,0-1.651.7,2.215,2.215,0,0,0-.7,1.637,2.249,2.249,0,0,0,.7,1.669,2.347,2.347,0,0,0,4-1.669,2.242,2.242,0,0,0-.7-1.637A2.277,2.277,0,0,0,82.406,194Z" transform="translate(-52.226 -126.555)" fill="url(#linear-gradient-9)"/>
      <path id="Path_3925" data-name="Path 3925" d="M30.575,154.905a1.085,1.085,0,0,1-.313.775,1.043,1.043,0,0,1-.789.327H22.388a1.043,1.043,0,0,1-.727-.282,1.137,1.137,0,0,1-.372-.7v-9.47H17.18v15.06a1.13,1.13,0,0,1-.327.834,1.144,1.144,0,0,1-.834.327H11.465a4.022,4.022,0,0,1-2.086-.567,4.116,4.116,0,0,1-1.5-1.519,4.009,4.009,0,0,1-.553-2.051v-5.33H3.25v5.33a8.059,8.059,0,0,0,1.1,4.123,8.343,8.343,0,0,0,2.983,3.007,7.94,7.94,0,0,0,4.137,1.116h6.779a2.882,2.882,0,0,0,2.159-.907,3.038,3.038,0,0,0,.88-2.187v-3.035a1.707,1.707,0,0,0,1.1.348h7.054a5.215,5.215,0,0,0,4.54-2.6,5.1,5.1,0,0,0,.7-2.6V145.47h-4.1Z" transform="translate(-2.119 -94.897)" fill="url(#linear-gradient-10)"/>
      <path id="Path_3926" data-name="Path 3926" d="M65.176,198.685a2.34,2.34,0,0,0,2.354-2.354,2.242,2.242,0,0,0-.7-1.637,2.354,2.354,0,0,0-3.32,0,2.215,2.215,0,0,0-.7,1.637,2.249,2.249,0,0,0,.7,1.669A2.288,2.288,0,0,0,65.176,198.685Z" transform="translate(-40.979 -126.561)" fill="url(#linear-gradient-11)"/>
      <path id="Path_3927" data-name="Path 3927" d="M120.32,143.411a1.071,1.071,0,0,1-1.043,1.043h-2.114a3.032,3.032,0,0,1-1.964-.671,3.3,3.3,0,0,1-1.13-1.77l-.031-.09a.9.9,0,0,0-.059-.3l-2.5-8.813-3.9,1.1,2.409,8.691a1.739,1.739,0,0,1,.059.348,1.154,1.154,0,0,1-.417.921,1.193,1.193,0,0,1-.4.389,1.359,1.359,0,0,1-.73.177H100.08v4.106H108.5a5.517,5.517,0,0,0,2.142-.431,6.174,6.174,0,0,0,1.877-1.206,7.332,7.332,0,0,0,4.641,1.637h2.114a4.961,4.961,0,0,0,2.576-.7,5.316,5.316,0,0,0,1.874-1.874,4.951,4.951,0,0,0,.7-2.576V127.76h-4.1Z" transform="translate(-65.286 -83.344)" fill="url(#linear-gradient-12)"/>
      <rect id="Rectangle_6" data-name="Rectangle 6" width="4.106" height="20.835" transform="translate(64.08 44.382)" fill="url(#linear-gradient-13)"/>
      <path id="Path_3928" data-name="Path 3928" d="M230.235,135.248a12.7,12.7,0,0,0-5.316-2.291c-.855-.139-1.488-.222-1.905-.254s-1.231-.052-2.434-.073h-.744v4.047a27.544,27.544,0,0,1,4.464.3,8.03,8.03,0,0,1,3.661,1.592,8.374,8.374,0,0,1,2.454,3.129,9.946,9.946,0,0,1,.88,4.227v1.13a.528.528,0,0,1-.177.4.612.612,0,0,1-.417.163h-1.22a5.668,5.668,0,0,0,.177-1.429v-.57a7.628,7.628,0,0,0-.921-3.689,6.953,6.953,0,0,0-2.545-2.68,6.81,6.81,0,0,0-3.588-.98,7.829,7.829,0,0,0-3.477.772A6.324,6.324,0,0,0,216.6,141.2a5.507,5.507,0,0,0-.939,3.171,6.022,6.022,0,0,0,.268,1.738,5.74,5.74,0,0,0,.7,1.519h-3.769a2.284,2.284,0,0,1-2.26-2.263v-8.274h-4.078v13.743a3.282,3.282,0,0,1-1.147,2.781,8.133,8.133,0,0,1-3.407,1.311l1.519,3.9a9.517,9.517,0,0,0,4.985-2.381,7.217,7.217,0,0,0,2.086-4.676l.031-.654a4.471,4.471,0,0,0,2.26.594h18.575a3.758,3.758,0,0,0,1.947-.535,4.022,4.022,0,0,0,1.446-1.443,3.849,3.849,0,0,0,.535-1.978v-1.822a13.715,13.715,0,0,0-1.37-6.16,12.307,12.307,0,0,0-3.741-4.526Zm-4.672,11.608a.737.737,0,0,1-.236.553.813.813,0,0,1-.567.223H222.11a2.048,2.048,0,0,1-1.088-.348,2.719,2.719,0,0,1-1.262-2.336,2.263,2.263,0,0,1,.876-1.86,3.052,3.052,0,0,1,1.95-.7,2.746,2.746,0,0,1,1.519.445,3.289,3.289,0,0,1,1.071,1.119,2.583,2.583,0,0,1,.386,1.293Z" transform="translate(-131.747 -86.521)" fill="url(#linear-gradient-14)"/>
      <path id="Path_3929" data-name="Path 3929" d="M316.816,124.5a2.27,2.27,0,0,0-1.651.7,2.207,2.207,0,0,0-.7,1.634,2.246,2.246,0,0,0,.7,1.669,2.35,2.35,0,0,0,3.317,0,2.259,2.259,0,0,0,.7-1.669,2.221,2.221,0,0,0-.7-1.634A2.256,2.256,0,0,0,316.816,124.5Z" transform="translate(-205.142 -81.217)" fill="url(#linear-gradient-15)"/>
      <path id="Path_3930" data-name="Path 3930" d="M306.352,159.213a4.436,4.436,0,0,1-.49,2.274,2.969,2.969,0,0,1-1.533,1.22,10.645,10.645,0,0,1-2.889.553l1.519,3.9a7.727,7.727,0,0,0,5.562-2.277,8.041,8.041,0,0,0,1.933-5.667V145.47h-4.1Z" transform="translate(-196.643 -94.897)" fill="url(#linear-gradient-16)"/>
      <path id="Path_3931" data-name="Path 3931" d="M75.72,3.268a.612.612,0,0,0,.431-.16.57.57,0,0,0,.177-.424.556.556,0,0,0-.177-.414.612.612,0,0,0-.431-.17.593.593,0,0,0-.41,1.008A.563.563,0,0,0,75.72,3.268Z" transform="translate(-49.017 -1.37)" fill="url(#linear-gradient-17)"/>
      <path id="Path_3932" data-name="Path 3932" d="M66.831,12.266a2.2,2.2,0,0,0,1.119.3h2.823V11.7H67.95A1.366,1.366,0,0,1,66.56,10.3a1.318,1.318,0,0,1,.4-.97,1.345,1.345,0,0,1,.973-.4h7.475a1.61,1.61,0,0,0,.841-.229,1.863,1.863,0,0,0,.626-.594,1.738,1.738,0,0,0,.629.594,1.7,1.7,0,0,0,.866.229H79.9a1.491,1.491,0,0,0,.866-.268,1.55,1.55,0,0,0,.563-.7,1.843,1.843,0,0,0,.82.747,2.288,2.288,0,0,0,2.131-.07,2.187,2.187,0,0,0,.817-.841,1.881,1.881,0,0,0,.751.831,2.3,2.3,0,0,0,2.215.049,2.086,2.086,0,0,0,.779-.7,1.45,1.45,0,0,0,.563.7,1.523,1.523,0,0,0,.89.275h1.62a1.644,1.644,0,0,0,.859-.236A1.8,1.8,0,0,0,93.4,8.1a1.634,1.634,0,0,0,.233-.859V.15h-.859V7.232a.817.817,0,0,1-.257.6.862.862,0,0,1-.633.257h-1.6a.88.88,0,0,1-.9-.9V3.15h-.859V6.627A1.411,1.411,0,0,1,88.1,7.67a1.6,1.6,0,0,1-2.155,0,1.363,1.363,0,0,1-.424-1.019v-2.3h-.848V6.613a1.411,1.411,0,0,1-.431,1.043,1.564,1.564,0,0,1-2.135,0,1.352,1.352,0,0,1-.431-1.012v-2.3h-.848V7.193a.859.859,0,0,1-.264.64.886.886,0,0,1-.633.257H78.4a1.043,1.043,0,0,1-.765-.316,1.1,1.1,0,0,1-.348-.758V4.235h-.876V7.016a1.081,1.081,0,0,1-1.074,1.078h-1.8a.7.7,0,0,1-.581-.278.98.98,0,0,1-.229-.643V6.561a3.935,3.935,0,0,0-.313-1.624,2.959,2.959,0,0,0-.848-1.1,3.789,3.789,0,0,0-2.434-.734,6.16,6.16,0,0,0-1.081.094,5.653,5.653,0,0,0-.9.233l.348.772a4.022,4.022,0,0,1,.7-.156,5.8,5.8,0,0,1,.9-.07,3.073,3.073,0,0,1,1.947.556,2.434,2.434,0,0,1,.834,2.023v.608a1.14,1.14,0,0,0,.139.549.918.918,0,0,0,.348.372H67.95a2.235,2.235,0,0,0-1.119,4.172Z" transform="translate(-42.867 -0.098)" fill="url(#linear-gradient-18)"/>
      <path id="Path_3933" data-name="Path 3933" d="M99.369,30.4a.591.591,0,0,0,.17-.424.546.546,0,0,0-.177-.41.594.594,0,0,0-.834,0,.546.546,0,0,0-.177.41.6.6,0,0,0,.595.594A.577.577,0,0,0,99.369,30.4Z" transform="translate(-64.158 -19.178)" fill="url(#linear-gradient-19)"/>
      <path id="Path_3934" data-name="Path 3934" d="M94.232,30.4a.57.57,0,0,0,.177-.417.546.546,0,0,0-.177-.41.591.591,0,0,0-.431-.17.585.585,0,0,0-.41,1,.549.549,0,0,0,.41.177A.584.584,0,0,0,94.232,30.4Z" transform="translate(-60.811 -19.179)" fill="url(#linear-gradient-20)"/>
      <path id="Path_3935" data-name="Path 3935" d="M117.2,6.787a.57.57,0,0,0,.424-.177.577.577,0,0,0,.17-.417.556.556,0,0,0-.177-.414.594.594,0,0,0-.834,0,.556.556,0,0,0-.177.414A.6.6,0,0,0,117.2,6.787Z" transform="translate(-76.07 -3.659)" fill="url(#linear-gradient-21)"/>
      <path id="Path_3936" data-name="Path 3936" d="M119.91,1.9a.584.584,0,0,0,.431-.177.57.57,0,0,0,.177-.417.549.549,0,0,0-.177-.41.591.591,0,0,0-.431-.17.556.556,0,0,0-.41.17.556.556,0,0,0-.17.41.577.577,0,0,0,.17.417A.549.549,0,0,0,119.91,1.9Z" transform="translate(-77.844 -0.476)" fill="url(#linear-gradient-22)"/>
      <path id="Path_3937" data-name="Path 3937" d="M122.14,6.189a.6.6,0,0,0,.594.6.563.563,0,0,0,.424-.177.577.577,0,0,0,.17-.417.556.556,0,0,0-.177-.414.594.594,0,0,0-.834,0A.556.556,0,0,0,122.14,6.189Z" transform="translate(-79.677 -3.659)" fill="url(#linear-gradient-21)"/>
      <rect id="Rectangle_7" data-name="Rectangle 7" width="0.848" height="8.855" transform="translate(53.111)" fill="url(#linear-gradient-24)"/>
      <path id="Path_3938" data-name="Path 3938" d="M179.374,3.394a.563.563,0,0,0,.424-.177.577.577,0,0,0,.17-.417.549.549,0,0,0-.177-.41.594.594,0,0,0-.834,0,.549.549,0,0,0-.177.41.606.606,0,0,0,.594.594Z" transform="translate(-116.626 -1.447)" fill="url(#linear-gradient-19)"/>
      <path id="Path_3939" data-name="Path 3939" d="M170.3,8.591a2.614,2.614,0,0,0,1.338.348A2.5,2.5,0,0,0,173.792,7.7a1.94,1.94,0,0,0,.7.893,1.916,1.916,0,0,0,1.109.348h.921a1.61,1.61,0,0,0,.841-.229,1.863,1.863,0,0,0,.654-.581,1.775,1.775,0,0,0,1.495.824h1.238a1.62,1.62,0,0,0,.841-.229,1.864,1.864,0,0,0,.626-.594,1.738,1.738,0,0,0,.626.594,1.707,1.707,0,0,0,.866.229h17.73a.737.737,0,0,0,.734-.734V3.095h-2.656a2.663,2.663,0,0,0-1.342.348,2.75,2.75,0,0,0-.987.949,2.461,2.461,0,0,0-.365,1.314v.532a2.194,2.194,0,0,0,.271,1.067,2.017,2.017,0,0,0,.72.789h-3.414v-2a2.966,2.966,0,0,0-.4-1.53A2.781,2.781,0,0,0,192.9,3.519a3.1,3.1,0,0,0-1.491-.375,3.411,3.411,0,0,0-.925.139l-3.543,1.088V3.157H186.1V8.094h-2.406a1.043,1.043,0,0,1-.765-.316,1.112,1.112,0,0,1-.348-.758V4.238h-.859V7.02a1.081,1.081,0,0,1-1.074,1.074H179.5a1.043,1.043,0,0,1-.768-.316,1.126,1.126,0,0,1-.348-.758V.15h-.859V7.016a1.081,1.081,0,0,1-1.074,1.078h-.834a1.217,1.217,0,0,1-.9-.348,1.189,1.189,0,0,1-.348-.883V3.095h-2.719a2.781,2.781,0,0,0-1.366.348,2.562,2.562,0,0,0-.973.963,2.663,2.663,0,0,0-.348,1.359V6.3a2.51,2.51,0,0,0,.362,1.328,2.74,2.74,0,0,0,.98.966Zm27.357-2.322v-.5A1.843,1.843,0,0,1,199.5,3.922h1.8V7.875a.222.222,0,0,1-.059.153.188.188,0,0,1-.146.063h-1.592a1.766,1.766,0,0,1-.918-.247,1.908,1.908,0,0,1-.7-.664A1.738,1.738,0,0,1,197.658,6.269Zm-10.715-1,3.807-1.165a2.482,2.482,0,0,1,.671-.087,2.274,2.274,0,0,1,1.071.254,1.787,1.787,0,0,1,.751.72,2.065,2.065,0,0,1,.3,1.1V7.83a.24.24,0,0,1-.073.184.25.25,0,0,1-.177.07h-6.352Zm-17.15.494a1.739,1.739,0,0,1,.254-.932,1.8,1.8,0,0,1,.664-.643,1.853,1.853,0,0,1,.914-.233h1.86V6.22a1.77,1.77,0,0,1-.254.932,1.9,1.9,0,0,1-.674.674,1.839,1.839,0,0,1-1.853,0,1.8,1.8,0,0,1-.7-.664,1.766,1.766,0,0,1-.247-.911Z" transform="translate(-110.219 -0.098)" fill="url(#linear-gradient-26)"/>
      <path id="Path_3940" data-name="Path 3940" d="M174.381,3.395a.591.591,0,0,0,.431-.17.563.563,0,0,0,.177-.424.549.549,0,0,0-.177-.41.591.591,0,0,0-.431-.17.563.563,0,0,0-.4.17.549.549,0,0,0-.177.41.57.57,0,0,0,.177.417A.556.556,0,0,0,174.381,3.395Z" transform="translate(-113.377 -1.448)" fill="url(#linear-gradient-27)"/>
      <path id="Path_3941" data-name="Path 3941" d="M202.56,29.57a.563.563,0,0,0-.17.41.591.591,0,0,0,.17.417.556.556,0,0,0,.414.177.584.584,0,0,0,.428-.177.57.57,0,0,0,.177-.417.546.546,0,0,0-.177-.41.591.591,0,0,0-.428-.17.563.563,0,0,0-.414.17Z" transform="translate(-132.028 -19.179)" fill="url(#linear-gradient-20)"/>
      <path id="Path_3942" data-name="Path 3942" d="M207.667,29.569a.546.546,0,0,0-.177.41.6.6,0,0,0,1.019.424.577.577,0,0,0,.17-.424.546.546,0,0,0-.177-.41.594.594,0,0,0-.834,0Z" transform="translate(-135.355 -19.178)" fill="url(#linear-gradient-29)"/>
      <path id="Path_3943" data-name="Path 3943" d="M230.094,3.247a.581.581,0,0,0,.594-.594.556.556,0,0,0-.177-.414.594.594,0,0,0-.834,0,.556.556,0,0,0-.177.414.57.57,0,0,0,.174.435A.591.591,0,0,0,230.094,3.247Z" transform="translate(-149.712 -1.349)" fill="url(#linear-gradient-30)"/>
      <path id="Path_3944" data-name="Path 3944" d="M256.144,3.138a.556.556,0,0,0,.421-.177.58.58,0,0,0,.174-.417.546.546,0,0,0-.177-.41.591.591,0,0,0-.838,0,.542.542,0,0,0-.174.41.567.567,0,0,0,.174.417A.574.574,0,0,0,256.144,3.138Z" transform="translate(-166.706 -1.278)" fill="url(#linear-gradient-31)"/>
      <path id="Path_3945" data-name="Path 3945" d="M57.1,225.14l-.389-.1a.914.914,0,0,1-.348-.139.257.257,0,0,1-.1-.2.292.292,0,0,1,.129-.25.626.626,0,0,1,.372-.09.81.81,0,0,1,.386.087.741.741,0,0,1,.278.25l.282-.223a.828.828,0,0,0-.369-.348,1.2,1.2,0,0,0-.574-.129,1.252,1.252,0,0,0-.494.09.7.7,0,0,0-.313.25.654.654,0,0,0-.111.375.587.587,0,0,0,.174.435,1.092,1.092,0,0,0,.525.261l.375.09a.761.761,0,0,1,.348.136.257.257,0,0,1,.1.212.3.3,0,0,1-.146.268.7.7,0,0,1-.4.1.8.8,0,0,1-.744-.41l-.282.219a.9.9,0,0,0,.375.407,1.238,1.238,0,0,0,.622.146,1.29,1.29,0,0,0,.511-.094.761.761,0,0,0,.348-.264.7.7,0,0,0,.122-.4.6.6,0,0,0-.17-.431,1.043,1.043,0,0,0-.511-.25Z" transform="translate(-36.401 -146.125)" fill="url(#linear-gradient-32)"/>
      <path id="Path_3946" data-name="Path 3946" d="M66.048,225.253H64.814V224.13H64.4v2.5h.414v-.991h1.234v.991h.41v-2.5h-.41Z" transform="translate(-42.011 -146.21)" fill="url(#linear-gradient-20)"/>
      <path id="Path_3947" data-name="Path 3947" d="M74.2,225.58h1.158v-.368H74.2V224.5h1.231v-.372H73.79v2.5h1.676v-.375H74.2Z" transform="translate(-48.136 -146.21)" fill="url(#linear-gradient-20)"/>
      <rect id="Rectangle_8" data-name="Rectangle 8" width="0.414" height="2.493" transform="translate(28.459 77.923)" fill="url(#linear-gradient-35)"/>
      <path id="Path_3948" data-name="Path 3948" d="M88.056,224.13,86.944,225.3V224.13H86.53v2.5h.414v-.8l.149-.156.946.96h.508l-1.192-1.238,1.2-1.259Z" transform="translate(-56.447 -146.21)" fill="url(#linear-gradient-20)"/>
      <path id="Path_3949" data-name="Path 3949" d="M96.658,225.253H95.424V224.13H95.01v2.5h.414v-.991h1.234v.991h.41v-2.5h-.41Z" transform="translate(-61.979 -146.21)" fill="url(#linear-gradient-20)"/>
      <path id="Path_3950" data-name="Path 3950" d="M109.612,226.16l-.8-2.03h-.528v2.5h.407v-1.905l.765,1.905h.323l.8-1.905v1.905h.407v-2.5h-.508Z" transform="translate(-70.636 -146.21)" fill="url(#linear-gradient-20)"/>
      <path id="Path_3951" data-name="Path 3951" d="M121.12,224.167a1.317,1.317,0,0,0-.664-.167,1.342,1.342,0,0,0-.671.167,1.182,1.182,0,0,0-.462.462,1.314,1.314,0,0,0-.163.664,1.339,1.339,0,0,0,.163.667,1.182,1.182,0,0,0,.476.473,1.391,1.391,0,0,0,.671.163,1.352,1.352,0,0,0,.664-.163,1.182,1.182,0,0,0,.462-.462,1.338,1.338,0,0,0,.167-.668,1.318,1.318,0,0,0-.167-.664,1.182,1.182,0,0,0-.476-.473Zm.09,1.592a.824.824,0,0,1-.309.327.9.9,0,0,1-.893,0,.859.859,0,0,1-.313-.327,1.043,1.043,0,0,1,0-.932.824.824,0,0,1,.313-.323.9.9,0,0,1,.893,0,.792.792,0,0,1,.309.323A1,1,0,0,1,121.211,225.759Z" transform="translate(-77.733 -146.125)" fill="url(#linear-gradient-39)"/>
      <path id="Path_3952" data-name="Path 3952" d="M131.371,225.253h-1.238V224.13h-.414v2.5h.414v-.991h1.238v.991h.41v-2.5h-.41Z" transform="translate(-84.622 -146.21)" fill="url(#linear-gradient-20)"/>
      <path id="Path_3953" data-name="Path 3953" d="M139.3,224.14l-.977,2.493h.438l.209-.535h1.106l.212.535h.438l-1-2.493Zm-.2,1.6.424-1.2.424,1.2Z" transform="translate(-90.232 -146.217)" fill="url(#linear-gradient-35)"/>
      <path id="Path_3954" data-name="Path 3954" d="M149.235,226.16l-.807-2.03H147.9v2.5h.407v-1.905l.765,1.905h.323l.8-1.905v1.905h.407v-2.5h-.511Z" transform="translate(-96.482 -146.21)" fill="url(#linear-gradient-20)"/>
      <path id="Path_3955" data-name="Path 3955" d="M160.462,226.16l-.807-2.03h-.525v2.5h.4v-1.905l.768,1.905h.32l.8-1.905v1.905h.4v-2.5h-.508Z" transform="translate(-103.807 -146.21)" fill="url(#linear-gradient-43)"/>
      <path id="Path_3956" data-name="Path 3956" d="M170.76,225.58h1.158v-.368H170.76V224.5h1.231v-.372H170.35v2.5h1.676v-.375H170.76Z" transform="translate(-111.127 -146.21)" fill="url(#linear-gradient-20)"/>
      <path id="Path_3957" data-name="Path 3957" d="M179.944,224.3a1.182,1.182,0,0,0-.619-.16H178.4v2.493h.925a1.206,1.206,0,0,0,.622-.163,1.113,1.113,0,0,0,.424-.445,1.349,1.349,0,0,0,.153-.64,1.335,1.335,0,0,0-.153-.636,1.106,1.106,0,0,0-.428-.448Zm.056,1.53a.744.744,0,0,1-.289.306.817.817,0,0,1-.435.111h-.462v-1.738h.462a.852.852,0,0,1,.435.111.751.751,0,0,1,.289.309.963.963,0,0,1,.1.445.991.991,0,0,1-.1.455Z" transform="translate(-116.378 -146.216)" fill="url(#linear-gradient-35)"/>
      <path id="Path_3958" data-name="Path 3958" d="M192.863,224.443v-.313h-1.818v.372h1.279l-1.3,1.815v.309h1.86v-.372h-1.325Z" transform="translate(-124.611 -146.21)" fill="url(#linear-gradient-20)"/>
      <path id="Path_3959" data-name="Path 3959" d="M199.77,225.58h1.158v-.368H199.77V224.5H201v-.372H199.36v2.5h1.679v-.375H199.77Z" transform="translate(-130.051 -146.21)" fill="url(#linear-gradient-20)"/>
      <rect id="Rectangle_9" data-name="Rectangle 9" width="0.414" height="2.493" transform="translate(72.118 77.923)" fill="url(#linear-gradient-48)"/>
      <path id="Path_3960" data-name="Path 3960" d="M213.841,225.955,212.5,224.13h-.386v2.5h.407V224.8l1.345,1.822h.386v-2.5h-.407Z" transform="translate(-138.369 -146.21)" fill="url(#linear-gradient-20)"/>
      <path id="Path_3961" data-name="Path 3961" d="M226.973,224.443v-.313h-1.815v.372h1.279l-1.307,1.815v.309h1.863v-.372h-1.325Z" transform="translate(-146.862 -146.21)" fill="url(#linear-gradient-50)"/>
      <path id="Path_3962" data-name="Path 3962" d="M233.89,225.58h1.158v-.368H233.89V224.5h1.231v-.372H233.48v2.5h1.676v-.375H233.89Z" transform="translate(-152.309 -146.21)" fill="url(#linear-gradient-20)"/>
      <path id="Path_3963" data-name="Path 3963" d="M243.181,225.253h-1.238V224.13h-.414v2.5h.414v-.991h1.238v.991h.41v-2.5h-.41Z" transform="translate(-157.561 -146.21)" fill="url(#linear-gradient-20)"/>
      <path id="Path_3964" data-name="Path 3964" d="M252.648,225.416a.758.758,0,0,0,.167-.487.737.737,0,0,0-.108-.4.81.81,0,0,0-.285-.289.775.775,0,0,0-.4-.1H250.91v2.486h.41v-.9h.348l.65.907h.483l-.7-.925h.09a.74.74,0,0,0,.452-.292Zm-.678-.066h-.65v-.841h.664a.414.414,0,0,1,.3.122.407.407,0,0,1,.122.3.4.4,0,0,1-.122.3.414.414,0,0,1-.3.122Z" transform="translate(-163.68 -146.217)" fill="url(#linear-gradient-53)"/>
      <path id="Path_3965" data-name="Path 3965" d="M259.78,225.58h1.158v-.368H259.78V224.5h1.234v-.372H259.37v2.5h1.679v-.375H259.78Z" transform="translate(-169.199 -146.21)" fill="url(#linear-gradient-20)"/>
      <path id="Path_3966" data-name="Path 3966" d="M268.974,224.3a1.192,1.192,0,0,0-.622-.16h-.921v2.493h.921a1.217,1.217,0,0,0,.626-.163,1.137,1.137,0,0,0,.424-.445,1.35,1.35,0,0,0,.153-.64,1.336,1.336,0,0,0-.153-.636A1.131,1.131,0,0,0,268.974,224.3Zm.045,1.53a.765.765,0,0,1-.289.306.817.817,0,0,1-.435.111h-.462v-1.738h.462a.851.851,0,0,1,.435.111.775.775,0,0,1,.289.309.963.963,0,0,1,.1.445A.99.99,0,0,1,269.019,225.829Z" transform="translate(-174.456 -146.216)" fill="url(#linear-gradient-35)"/>
      <rect id="Rectangle_10" data-name="Rectangle 10" width="0.414" height="2.493" transform="translate(96.179 77.923)" fill="url(#linear-gradient-35)"/>
      <path id="Path_3967" data-name="Path 3967" d="M283.061,225.955l-1.349-1.825h-.382v2.5h.407V224.8l1.345,1.822h.386v-2.5h-.407Z" transform="translate(-183.524 -146.21)" fill="url(#linear-gradient-20)"/>
    </g>
  </g>
</svg>
