<svg id="Component_2_2" data-name="Component 2 – 2" xmlns="http://www.w3.org/2000/svg" xmlns:xlink="http://www.w3.org/1999/xlink" width="120.628" height="30.146" viewBox="0 0 120.628 30.146">
  <defs>
    <linearGradient id="linear-gradient" x1="-0.366" y1="0.5" x2="1.641" y2="0.576" gradientUnits="objectBoundingBox">
      <stop offset="0" stop-color="#29774d"/>
      <stop offset="1" stop-color="#155332"/>
    </linearGradient>
  </defs>
  <g id="Layer_2" data-name="Layer 2">
    <g id="Layer_1" data-name="Layer 1">
      <path id="Path_3" data-name="Path 3" d="M17.438,30.145A10.634,10.634,0,0,1,12.8,29.1l-.029-.014a13.108,13.108,0,0,1-4.616-3.756l-.075-.1a18.478,18.478,0,0,1-1.553-2.5A21.435,21.435,0,0,0,4.2,19.161,22.42,22.42,0,0,0,.135,15.273a.25.25,0,0,1,0-.4A22.4,22.4,0,0,0,4.2,10.982a21.464,21.464,0,0,0,2.327-3.57,18.9,18.9,0,0,1,1.55-2.5l.075-.1a13.108,13.108,0,0,1,4.619-3.759l.029-.014A10.634,10.634,0,0,1,17.438,0h85.818a10.628,10.628,0,0,1,4.635,1.043l.03.014a13.108,13.108,0,0,1,4.62,3.756l.075.1a18.981,18.981,0,0,1,1.55,2.5,21.463,21.463,0,0,0,2.327,3.57,22.42,22.42,0,0,0,4.067,3.888.252.252,0,0,1,0,.4,22.4,22.4,0,0,0-4.067,3.888,21.434,21.434,0,0,0-2.327,3.571,18.823,18.823,0,0,1-1.55,2.495l-.075.1a13.108,13.108,0,0,1-4.616,3.756l-.03.014a10.628,10.628,0,0,1-4.635,1.043Z" transform="translate(-0.033 0.002)" fill="url(#linear-gradient)"/>
    </g>
  </g>
  <text id="Next" transform="translate(31 21.146)" fill="#f0fff9" font-size="18" font-family="Ubuntu"><tspan x="0" y="0">Next</tspan></text>
  <g id="icon_38_" transform="translate(-174.632 -1710.255)">
    <path id="Path_3912" data-name="Path 3912" d="M277.632,1732.872a.943.943,0,0,1-.667-1.61l5.934-5.934-5.934-5.934a.943.943,0,0,1,1.333-1.333l6.6,6.6a.944.944,0,0,1,0,1.335l-6.6,6.6A.931.931,0,0,1,277.632,1732.872Z" transform="translate(-20.543)" fill="#f8d148"/>
  </g>
</svg>
