<svg xmlns="http://www.w3.org/2000/svg" width="19.914" height="22" viewBox="0 0 19.914 22">
  <g id="Component_9_1" data-name="Component 9 – 1" transform="translate(18.914 21) rotate(180)">
    <path id="Path_4000" data-name="Path 4000" d="M12,15a3,3,0,1,0-3-3A3,3,0,0,0,12,15Z" transform="translate(-2.939 -2)" fill="none" stroke="#f8d148" stroke-linecap="round" stroke-linejoin="round" stroke-width="2"/>
    <path id="Path_4001" data-name="Path 4001" d="M9.29,19.371l.584,1.315a2.213,2.213,0,0,0,4.044,0l.584-1.315a2.424,2.424,0,0,1,2.47-1.423l1.43.152a2.213,2.213,0,0,0,2.022-3.5l-.847-1.163a2.448,2.448,0,0,1,0-2.863l.847-1.163a2.213,2.213,0,0,0-2.022-3.5l-1.43.152a2.418,2.418,0,0,1-2.47-1.429l-.589-1.314a2.213,2.213,0,0,0-4.044,0L9.29,4.629A2.418,2.418,0,0,1,6.82,6.058L5.385,5.906a2.213,2.213,0,0,0-2.022,3.5l.847,1.163a2.43,2.43,0,0,1,0,2.858l-.847,1.163a2.213,2.213,0,0,0,2.022,3.5l1.43-.152A2.428,2.428,0,0,1,9.29,19.371Z" transform="translate(-2.939 -2)" fill="none" stroke="#f8d148" stroke-linecap="round" stroke-linejoin="round" stroke-width="2"/>
  </g>
</svg>
