<svg xmlns="http://www.w3.org/2000/svg" width="569.028" height="707.867" viewBox="0 0 569.028 707.867">
  <g id="Layer_1" data-name="Layer 1" transform="translate(0.5 0.827)">
    <path id="Path_4" data-name="Path 4" d="M568.028,342.28v21.652c0,74.848-35.035,146.546-93.71,191.8q-.954.735-1.884,1.437c-16.117,12.193-30.9,20.291-46.55,28.865-20.591,11.287-41.888,22.958-69.4,45.253a435.844,435.844,0,0,0-72.473,74.927,435.813,435.813,0,0,0-72.477-74.927c-27.516-22.3-48.809-33.965-69.4-45.253-15.65-8.573-30.429-16.671-46.55-28.864q-.938-.7-1.88-1.437C35.031,510.478,0,438.78,0,363.932V342.28c0-74.844,35.031-146.546,93.714-191.811q.938-.73,1.88-1.441c16.121-12.185,30.9-20.287,46.554-28.865,20.591-11.271,41.884-22.938,69.388-45.241A435.648,435.648,0,0,0,284.012,0a435.842,435.842,0,0,0,72.473,74.923c27.511,22.3,48.809,33.969,69.4,45.253,15.646,8.577,30.433,16.679,46.55,28.869l1.884,1.437C532.993,195.734,568.028,267.436,568.028,342.28Z" transform="translate(0 0)" fill="none" stroke="#f8d148" stroke-width="1"/>
  </g>
</svg>
