<svg xmlns="http://www.w3.org/2000/svg" width="21.604" height="21.604" viewBox="0 0 21.604 21.604">
  <g id="Group_9" data-name="Group 9" transform="translate(-2 -2)">
    <path id="Path_3968" data-name="Path 3968" d="M9.5,9.059c0-.52,0-.78.109-.925a.545.545,0,0,1,.4-.217c.181-.013.4.128.837.409l5.141,3.305c.379.244.569.366.635.521a.544.544,0,0,1,0,.424c-.065.155-.255.277-.635.521L10.842,16.4c-.437.281-.656.422-.837.409a.544.544,0,0,1-.4-.217c-.109-.145-.109-.4-.109-.925Z" transform="translate(0.579 0.438)" fill="none" stroke="#e3fff0" stroke-linecap="round" stroke-linejoin="round" stroke-width="2"/>
    <path id="Path_3969" data-name="Path 3969" d="M3,8.228c0-1.83,0-2.745.356-3.444A3.267,3.267,0,0,1,4.784,3.356C5.483,3,6.4,3,8.228,3h9.148c1.83,0,2.745,0,3.444.356a3.267,3.267,0,0,1,1.428,1.428c.356.7.356,1.614.356,3.444v9.148c0,1.83,0,2.745-.356,3.444a3.267,3.267,0,0,1-1.428,1.428c-.7.356-1.614.356-3.444.356H8.228c-1.83,0-2.745,0-3.444-.356A3.267,3.267,0,0,1,3.356,20.82C3,20.121,3,19.206,3,17.376Z" transform="translate(0 0)" fill="none" stroke="#e3fff0" stroke-linecap="round" stroke-linejoin="round" stroke-width="2"/>
  </g>
</svg>
