<svg xmlns="http://www.w3.org/2000/svg" xmlns:xlink="http://www.w3.org/1999/xlink" width="566.13" height="791" viewBox="0 0 566.13 791">
  <defs>
    <linearGradient id="linear-gradient" x1="0.5" x2="0.5" y2="1.58" gradientUnits="objectBoundingBox">
      <stop offset="0" stop-color="#155332"/>
      <stop offset="0.141" stop-color="#134f31"/>
      <stop offset="1" stop-color="#06362d"/>
    </linearGradient>
    <linearGradient id="linear-gradient-2" x1="0.5" x2="0.5" y2="1" gradientUnits="objectBoundingBox">
      <stop offset="0" stop-color="#dff4eb"/>
      <stop offset="1" stop-color="#c7e1d6"/>
    </linearGradient>
    <clipPath id="clip-path">
      <rect id="Rectangle_4" data-name="Rectangle 4" width="360" height="760" fill="url(#linear-gradient)"/>
    </clipPath>
    <linearGradient id="linear-gradient-3" x1="-0.288" y1="-0.958" x2="0.489" y2="-0.069" gradientUnits="objectBoundingBox">
      <stop offset="0" stop-color="#0c422f"/>
      <stop offset="1" stop-color="#06362d"/>
    </linearGradient>
    <filter id="Rectangle" x="0" y="593.796" width="566.13" height="197.204" filterUnits="userSpaceOnUse">
      <feOffset dy="2" input="SourceAlpha"/>
      <feGaussianBlur stdDeviation="24" result="blur"/>
      <feFlood flood-opacity="0.122"/>
      <feComposite operator="in" in2="blur"/>
      <feComposite in="SourceGraphic"/>
    </filter>
    <linearGradient id="linear-gradient-4" x1="0.5" x2="0.5" y2="1" gradientUnits="objectBoundingBox">
      <stop offset="0" stop-color="#f8d148"/>
      <stop offset="1" stop-color="#e2c562"/>
    </linearGradient>
  </defs>
  <g id="Tab_Menu" data-name="Tab Menu" transform="translate(101.565 655.561)">
    <g id="Group_10" data-name="Group 10" transform="translate(0 -685.561)">
      <rect id="Rectangle_19" data-name="Rectangle 19" width="360" height="658" rx="18" transform="translate(0 144)" fill="url(#linear-gradient-2)"/>
      <g id="Mask_Group_3" data-name="Mask Group 3" transform="translate(0 30)" opacity="0.07" clip-path="url(#clip-path)">
        <g id="Layer_2" data-name="Layer 2" transform="translate(-86.694 147.581)" opacity="0.28">
          <g id="Layer_1" data-name="Layer 1" transform="translate(0 0)">
            <path id="Path_3914" data-name="Path 3914" d="M29.912,381.9a11.669,11.669,0,0,1,2.8.708c21.569,11.147,42.068,7.583,61.4-5.219,12.39-8.207,20.149-20.434,25.347-34.138,7.6-20.044,8.433-40.8,5.765-61.854a42.5,42.5,0,0,1,0-5.548c3.916-.668,7.5-.814,10.775-1.9,13.611-4.56,21.235-14.862,25.344-27.98,2.823-8.975,3.083-18.225,1.9-27.629a137.688,137.688,0,0,0-7-30.067c-.271-.736-.98-1.311-2.274-2.972-.052,8.33-.043,15.364-.157,22.4a50.158,50.158,0,0,1-7.214,25.146,33.562,33.562,0,0,1-7.328,8.555c-9.087,7.537-21.072,5.624-27.564-4.191-1.384-2.093-2.28-4.486-3.455-6.717-.763-1.466-1.628-2.88-2.839-5.021-6.223,8.43-7.078,17.761-9.184,27.005,1.46,3,2.926,6.2,4.552,9.312,4.9,9.412,9.524,18.944,12.056,29.312,2.891,11.866,2.3,23.474-3.257,34.55-8.294,16.556-21.748,27.171-39.428,31.687-18.559,4.717-35.128.285-47.885-14.594-8.224-9.6-10.949-21.441-11.369-33.769-.679-20.052,4.736-38.882,12.289-57.191,9.757-23.642,22.749-45.551,36.466-67.038,2.625-4.1,5.58-9.274,9.122-12.58-.63.589,1.827,11.915,1.97,13.429q.768,8.2.814,16.45c.079,13.028-.746,26.56-4.288,39.151-3.4,12.124-8.908,23.531-14.9,34.569-4.693,8.644-9.388,17.3-13.652,26.164a145.308,145.308,0,0,0-13,41.33c3.01,3.466,3.01,3.466,6.462,4.885a4.3,4.3,0,0,0,.736-1.295c3.528-22.234,12.425-42.451,23.154-62.006q6.915-12.61,13.34-25.48c5.781-11.581,10.042-23.816,11.329-36.656A173.906,173.906,0,0,0,78.8,174.244c-.741-4.1-1.761-8.414-4.75-11.32-.622-.6,11.842-16.985,12.952-18.646,3.306-4.953,6.449-10.018,9.29-15.25,6.867-12.648,12-26.435,13.171-40.771.6-7.4.065-15.145-3.409-21.713S95.661,54.873,88.243,55.218c-8.02.372-14.5,6.69-18.952,13.367C62.315,79.04,57.826,91.736,58.1,104.492c.337,15.913,3.436,31.329,6.389,46.9a5.07,5.07,0,0,0,.684,2.019,1.793,1.793,0,0,0,1.843.814c-.814.242-2.752,4.668-3.2,5.4q-2.1,3.474-4.2,6.937L51.25,180.332c-5.512,9.111-10.97,18.258-16.2,27.532C23.165,228.922,12.561,250.67,5.773,274.033c-6.147,21.129-7.787,42.53-2.956,64.172,3.735,16.73,10.976,31.345,25.428,41.55A8.507,8.507,0,0,1,29.912,381.9ZM66.767,110.653c-.543-12.314,1.126-24.82,7.2-35.693,2.595-4.638,5.358-8.861,10.2-11.28,3.631-1.816,7.4-1.281,10.856.6,2.88,1.563,4.533,4.948,5.757,7.928,2.9,7.057,3.048,15.131,1.357,22.511-2.255,9.915-7.513,18.5-12.569,27.182-5.176,8.87-10.9,17.37-16.841,25.808.776-1.1-1.189-7.439-1.428-8.891-1.392-8.414-3.737-16.616-4.343-25.189C66.864,112.634,66.8,111.647,66.767,110.653ZM29.822,381.872a.273.273,0,0,0,.09.019.713.713,0,0,0,.095.141.664.664,0,0,1-.071-.019,1.356,1.356,0,0,1-.114-.141Zm113.335-23.219c3.07-7.808,1.924-12.515-4.535-17.913-1.715-1.433-3.479-2.806-5.862-4.723,3.428-4.975,6.693-9.638,9.871-14.352,3.026-4.486,2.985-4.514,2.519-11.584l-13.842-9.152c3.306-8.121,8.335-14.623,12.981-22.584,4.438,2.749,8.072,4.552,11.174,7.021,6.27,4.986,7.6,10,4.31,17.351-2.348,5.246-5.539,10.113-8.631,15.641,1.387,1.012,3.146,2.247,4.85,3.553,7.282,5.567,8.853,12.517,4.245,20.562a75.475,75.475,0,0,1-17.815,20.9c.339-2.277.3-3.585.736-4.709Zm-19.919,45.93a93.681,93.681,0,0,0,6.039-7.521c-4.725-.974-7.559,1.441-10.7,2.57-6.145,2.212-12.2,4.7-18.439,6.6-3.042.926-6.514,1.27-9.529-2.291,2.443-6.177,4.731-12,7.179-18.2,7.822,1.989,14.621-.456,21.4-3.178a102.135,102.135,0,0,1,10.683-3.778,53.608,53.608,0,0,1,7.548-1.11c2.69,2.462,2.8,4.682,2.269,7.4-1.506,7.7-5.588,14.048-10.368,19.935-6.742,8.305-16.2,12.213-27.3,16.51,1.859-4.5,4.763-5.371,7.057-6.861,2.54-1.628,5.178-3.146,7.654-4.885a43.47,43.47,0,0,0,6.511-5.173ZM102.381,142.362c2.383-6.221,4.679-12.213,7.133-18.624,9.331,2.4,17.063-1.737,25.084-4.454,2.861-.969,5.61-2.35,8.53-3.037,2.291-.543,4.766-.3,7-.4a12.035,12.035,0,0,1,.421,10.935c-4.256,10.824-10.406,20.144-21.1,25.716-5.026,2.619-10,5.349-15.715,6.457,3.553-5.5,9.771-7.255,14.561-10.954s9.839-7.019,12.406-13.554c-4-.136-6.929,1.873-10.061,3.1-5.385,2.112-10.68,4.5-16.179,6.242C110.683,144.994,106.617,145.41,102.381,142.362ZM149.4,157.688c9.7-4.712,17.845-11.114,23.488-20.9-.879,3.034-1.531,6.156-2.673,9.084-5.474,14.032-16.065,22.893-29.521,28.769-5.539,2.418-11.3,4.427-16.618,7.249-11.5,6.1-21.634,13.907-28.965,26.9.019-3.064-.328-4.69.1-6.082,3.7-12.235,12.444-20.643,22.256-27.914,5.233-3.873,11.163-6.848,16.933-9.934C139.281,162.261,144.408,160.1,149.4,157.688Zm27.912,66.251c3.113-8.036,8.283-14.507,12.526-21.889a31.287,31.287,0,0,1,12.113,6.565c5.466,4.815,6.772,9.469,4.239,16.255-3.5,9.4-9.993,16.735-17.476,23.664,1.156-4.614,2.315-9.247,3.713-14.83ZM40.464,271.932l3.8-10.1c-1.376-8.862-10.533-9.1-15.3-14.526l13-21.17c5.189,2.027,9.863,4.28,13.57,8.188,3.319,3.528,4.742,7.328,3.219,12.409-3.154,10.5-10.14,18.209-16.8,26.223ZM81.621,337.07c.225-11.942-.125-23.211-7.627-33.058l-5.949-1.086c-3.232-4.961-3.5-9.608-.312-14.52,4.049-1.5,6.707.543,8.9,3.561a46.253,46.253,0,0,1,8.433,23.07,72.3,72.3,0,0,1,0,7.276l1,.035c.624-6.742,1.034-13.511,1.938-20.215a125.994,125.994,0,0,1,3.308-16.96c1.056-3.8,2.861-7.6,7.268-8.821,6.112,4.131,6.75,7.282,2.834,14.822l-5.007-.326c-.388.453-1.143.95-1.319,1.6-1.357,5.056-2.8,10.1-3.83,15.229-1.284,6.389-1.949,12.911-3.365,19.27-.793,3.539-1.645,7.4-6.275,10.115ZM215.77,446.144c.2-10.685-.111-20.765-6.823-29.584l-5.322-.972c-2.893-4.44-3.129-8.6-.271-12.992,3.623-1.341,6,.5,7.963,3.186a41.369,41.369,0,0,1,7.548,20.646c.217,2.147,0,4.343,0,6.514l.9.033c.556-6.031.926-12.086,1.734-18.084a112.641,112.641,0,0,1,2.958-15.177c.947-3.4,2.559-6.785,6.514-7.893,5.469,3.7,6.039,6.514,2.535,13.264l-4.478-.293c-.347.407-1.023.852-1.181,1.436-1.213,4.524-2.508,9.038-3.428,13.625-1.148,5.719-1.742,11.551-3.01,17.237C220.674,440.263,219.911,443.72,215.77,446.144Zm-53.2-160.975a8.6,8.6,0,0,1-.2-2.985c.746-8.956,4.2-16.879,9.4-24.112a.706.706,0,0,1,.651-.185c.2.084.3.38.453.584-1.87,7.211-7.521,13.929-3.026,22.142,4.185.73,5.7-3.458,9.26-5.048-.963,5.192-2.676,9.206-5.792,12.6-1.628,1.761-3.5,2.92-6,2.34C164.528,289.837,163.285,287.674,162.574,285.169ZM19.924,300.585a50.223,50.223,0,0,1,9.708-22.527c-1.243,7.635-6.666,14.927-1.854,23.993l8.631-6.134c-1.086,5.409-2.8,9.73-6.427,13.052-3.477,3.181-7.214,2.494-9.049-1.843A12.54,12.54,0,0,1,19.924,300.585ZM179.04,163.252c-.638,7.312-6.563,14.032-1.783,23l8.077-4.687c-1.474,7.9-3.528,10.989-9.274,14.113-5.382-2.171-7.469-4.921-6.736-9.972a49.439,49.439,0,0,1,9.716-22.467Zm-63.724-61.368a48.457,48.457,0,0,1,9.833-22.356c-1.145,7.157-6.215,13.714-2.877,21.965,4.435-.377,4.435-.377,9.513-4.25-1.558,7.181-3.735,12.821-10.642,15.153C116.223,110.279,114.534,106.392,115.316,101.884Zm8.042,108.783c-.033,5.444,4.413,8.023,9.4,5.827a10.107,10.107,0,0,0,6.373-9.448c.252-5.024-2.554-7.822-6.717-9.681l-2.581,1.46q.7-2.589,1.4-5.184C126.308,198.4,123.4,204.01,123.358,210.667Zm13.874-3.393c-2.068,4.945-5.377,4.324-8.916,3.447-2.641-4.343-1.278-8,1.357-11.516a7.784,7.784,0,0,0,1.3,2.9C132.9,203.953,135.083,205.529,137.232,207.275ZM76.657,391.914c-.307,7.708-5.727,13.448-1.251,20.356l7.276-4.788c-2.2,6.033-3.832,10.569-8.832,12.6-4.579-1.4-5.173-4.671-4.918-8.454C69.388,404.884,72.716,399.28,76.657,391.914ZM255.64,314.462c9-32.965,1.436-61.542-23.474-84.88-6.9-6.484-10.968-12.474-7.982-22.147,1.376-4.465,1.305-9.38,1.946-14.528,50.031,30.941,52.363,89.679,28.712,129.378C255.23,318.226,255.146,316.264,255.64,314.462Zm238.739-34.469c-6.242,4.457-11.345,10.514-16.963,15.861-1.444,1.373-3.691,4.177-4.215,3.884-6.373-3.528-7.393,2.744-9.5,5.48-3.68,4.736-6.514,10.162-9.418,15.454-8.232,14.927-21.094,23.1-37.539,26.327-14.23,2.8-27.141.4-37.245-10.5-9.594-10.333-7.008-22.217-3.108-34.138,2.31-7.089,4.807-14.265,5.824-21.593,2.549-18.358-5.428-32.251-20.06-43.58a1.292,1.292,0,0,1,.271-2.171c7.249-3.289,13.98-6.335,21.1-9.554a1.289,1.289,0,0,1,1.8,1.4c-1.406,7.9-2.986,14.743-3.488,21.661-1.259,17.745,7.665,31.654,22.63,35.381,15.682,3.906,30.346,1.189,40.858-11.562,6.834-8.286,11.415-18.456,16.854-27.849a51.682,51.682,0,0,0,2.986-6.785,1.292,1.292,0,0,1,2.12-.432c13.456,13.877,30.259,19.232,47.008,24.389,2.342.714,6.834-1.14,8.446-3.257,13.915-18.155,14.482-42.75,1.946-62.3-9.852-15.356-18.955-17.471-32.151-5.138-13.467,12.585-29.73,23.105-36.1,41.965-.714,2.12-2.329,3.957-3.574,5.892-8.414,13.079-21.083,18.545-35.94,18.575a31.3,31.3,0,0,1-16.141-4.864c-8.81-5.7-8.731-15.229-8.574-24.755.13-8.392,6.628-9.068,11.858-11.353,18.727-8.167,37.055-17.555,56.4-23.819,16.784-5.45,17.78-19.066,23.205-32.805a1.3,1.3,0,0,0-1.039-1.767c-23.241-2.825-44.891-6.514-66.672-7.686q-57.281-3.1-114.7-3.33c-18.4-.062-29.733,10.81-34.428,28.43-4.885,18.364-.138,32.778,15.223,42.85,11.8,7.741,24.155,14.626,37.3,22.462a1.3,1.3,0,0,1,.19,2.084c-28.731,25.447-44.259,57.566-51.961,94.024-.318,1.476-1.563,3.528-2.817,3.927-3.55,1.148-7.092,2.388-10.653,3.553a17.115,17.115,0,0,1-17.036-3.773l-.073-.068a96.212,96.212,0,0,1-13.2-15.1c-.364-.518-.719-1.045-1.067-1.563-.5-.765-1-1.528-1.474-2.293-.814-1.3-1.566-2.6-2.277-3.925a73.874,73.874,0,0,1-7.583-20.806q-3.729-18.4,1.628-39.3h0c.144-.556.293-1.118.442-1.672.494-1.8.41-3.762.814-7.819a66.832,66.832,0,0,0-4.128,8.384l-2.836,4.467-.014.016a103.3,103.3,0,0,0-11.92,15.56c-7.6,12.859-12.667,26.853-17.186,41.061-6.1,19.194-11.82,38.54-18.86,57.379-6.223,16.645-15.2,31.893-29.057,43.713-31.041,26.449-69.152,14.927-85.665-9.714-4.725-7.038-8-15.039-11.871-22.475-1.113-1.417-2.293-2.9-3.471-4.4-1.373-.307-2.755-.622-4.421-1a14.745,14.745,0,0,0-.231,3.026c.366,2.741.814,5.485,1.341,8.2,4.614,23.727,15.918,43.469,35.384,58.081,14.656,11.014,31.063,15.335,49.228,11.065,11.882-2.785,21.751-9.228,30.569-17.4,16.751-15.53,27.217-34.887,33.777-56.486,4.4-14.453,8.142-29.095,12.623-43.512,3.422-11.092,7.3-22.014,12.962-32.118a87.153,87.153,0,0,0,15.2,39.919c.068.095.138.2.217.3,1.086,1.547,2.255,3.075,3.479,4.571.271.345.565.679.85,1.021.375.451.757.9,1.148,1.338.271.326.565.651.86.969q.95,1.056,1.954,2.1c1.053,1.086,2.139,2.171,3.257,3.213,0,0,3.425,2.79,6.384,5.195a19.511,19.511,0,0,0,19.832,2.855c2.657-1.11,5.857-2.459,8.178-3.466a1.308,1.308,0,0,1,1.813,1.151c.149,4.044.271,7.456.413,10.856,2.131,51.744,37.8,85.765,89.492,84.9,40.315-.679,73.28-17.642,100.261-46.937a192.672,192.672,0,0,0,41.8-71.2c6.074,1.851,11.711,4.307,17.56,5.075,3.181.415,8.107-.972,9.89-3.33,13.546-17.87,11.684-50.189-3.276-66.794-7.325-8.134-16.572-9.947-25.442-3.607Zm3.957-69.1c9.695,1.59,12.349,10.376,15.837,17.913a1.3,1.3,0,0,1-.217,1.417c-.35.407-.814.814-.573,1.219q-16.613-7.735-33.253-15.492c5.792.212,12.58-5.957,18.206-5.043Zm-216.1-19.27c-1.884-1.045-3.493-2.595-6.375-4.959a1.292,1.292,0,0,1,.182-2.125c4.663-2.641,8.327-5.339,12.4-6.256,8.359-1.9,17.042-3.68,25.537-3.452,38.206,1.012,76.4,2.733,114.591,4.245a8.645,8.645,0,0,1,1.87.353,1.295,1.295,0,0,1,.187,2.443c-15.769,6.655-30.126,12.393-44.126,18.909-13.788,6.422-27.057,13.934-40.69,20.673-2.193,1.086-5.724,1.783-7.627.774-18.784-9.947-37.365-20.266-55.945-30.6Zm53.7,59.308a1.289,1.289,0,0,1,1.514-.079c13.071,8.509,26.438,15.9,34.74,32.222a1.3,1.3,0,0,1-.543,1.718c-29.907,16.409-59.387,32.569-88.848,48.74a3.688,3.688,0,0,1-4-.3l-.033-.024a3.716,3.716,0,0,1-1.33-3.9c8.815-33.679,31.977-57.023,58.5-78.375ZM488.94,348.347c-24.533,43.786-57.11,78.022-108.563,88.449-49.475,10.029-92.531-15.639-105-61.317-2.19-8-1.235-12.422,7.1-16.719,26.055-13.424,51.429-28.129,77.061-42.353,1.43-.787,2.853-1.609,4.614-2.622a1.3,1.3,0,0,1,1.935,1.221c-.681,9.174-1.756,17.321-1.5,25.426.738,22.9,16.795,37.908,39.723,37.381,19.341-.456,35.245-7.871,45.469-24.956,4.429-7.4,8.224-15.174,11.961-22.255a1.292,1.292,0,0,1,1.875-.451l25.336,17.389c-.022-.29.228.4-.011.814ZM510.7,323.207c-9.4-3.8-18.005-7.266-27.258-11.008a1.308,1.308,0,0,1-.442-2.12c10.835-10.9,21.072-6.812,29.364,11.4a1.292,1.292,0,0,1-1.664,1.737ZM416.729,107.478c-22.942,8.8-45.382,18.9-68.626,28.731,3.365-9.624,9.57-15.649,18.676-19.362,23.265-9.5,46.357-19.4,70-28.126C432.373,97.943,426.2,103.849,416.729,107.478ZM282.6,48.183c-22.942,8.8-45.385,18.9-68.628,28.731,3.368-9.624,9.57-15.652,18.676-19.365,23.265-9.5,46.359-19.4,70-28.126C298.24,38.646,292.063,44.552,282.6,48.183Zm-22.478,82.158c-2.671,10.555-4.343,21.36-7.846,32.3-1.463-5.3-3.819-10.531-4.207-15.9-.814-11.076-11.345-13.57-16.952-20.3-5.333-6.4-4.885-12.1-2.614-20.551,14.561,9.483,20.084,22.91,24.286,35.625,3.669-9.814,6.723-20.627,11.711-30.479,3.979-7.855,13.264-8.365,16.556-1.628,1.6,3.289.228,8.017.2,12.732C268.4,115.384,263.407,117.343,260.118,130.341Zm198.033-2.646c4.2-3.257,8.216-6.726,13.44-11.033-11.771-4.484-19.037,1.262-26.522,6.565.4-14.7,16.741-27.035,30.52-23.048,1.666.48,3.759,3.618,3.661,5.415-.9,16.447-16.656,31.367-35.937,32.984C449.059,134.38,453.689,131.147,458.151,127.695ZM248.067,28.275c4.2-3.257,8.216-6.726,13.44-11.033-11.771-4.486-19.037,1.259-26.522,6.563.4-14.7,16.74-27.032,30.52-23.048,1.666.483,3.762,3.621,3.661,5.428-.9,16.445-16.656,31.364-35.937,32.984C238.975,34.957,243.605,31.725,248.067,28.275ZM401.9,303.538c-.019,2.893-.646,5.971.119,8.631.722,2.513,2.909,4.614,4.454,6.883,1.428-2.714,3.621-5.3,4.071-8.169.5-3.162-.589-6.579-1.191-11.576,7.3,5.819,1.276,16.043,11.551,19.438-1.3-6.812-2.367-12.406-3.433-18l2.443-.323c2.986,7.355,8.1,14.8,1.517,22.551-1.33,1.569-6.131.19-11.128.157-1.118.383-5.3,3.238-7.306,2.136-2.443-1.357-3.7-5.909-4.283-9.285-.692-4.022-.117-8.262-.092-12.409Zm85.659-125.163,21.96-19.976c-6.823-10.5-6.934-14.656,1.086-19.028a2.652,2.652,0,0,1,3.862,1.748c1.162,5.246,2.315,10.46,3.479,15.723a2.644,2.644,0,0,1-4.343,2.551l-.062-.054-24.53,20.687Zm-15.218,88.707q2.2,4.991,4.4,9.985l-3.064,1.715-7.371-2.217c-5.268,13.972-16.176,20.9-30.24,23.835,4.367-2.956,9.274-5.363,12.979-8.994,5.795-5.675,10.672-12.273,16.152-18.288,2.082-2.291,4.747-4.041,7.146-6.036ZM318.769,99.116c2.152-1.653,3.767-3.83,5.7-4.161,3.357-.575,6.91,0,10.379.076-.155,3.433.961,7.776-.719,10.115-3.895,5.428-9.136,9.879-13.842,14.729l-1.628-1.414c2.171-2.606,4.8-4.972,6.394-7.9,1.392-2.549,2.565-5.93,1.992-8.541C326.751,100.709,322.374,100.291,318.769,99.116Zm-60.73,301.247q-.041,1.172-.079,2.345l-8.5,4.3q-.969-7.352-1.935-14.7l3.1-.353C251.213,396.148,248.021,403.131,258.039,400.363ZM343.568,412.2c21.515-1.514,40.538-9.725,58.442-22.117a28.918,28.918,0,0,1-1.884,2.622,25.154,25.154,0,0,1-2.524,2.34c-16.683,14.265-36.249,21.941-57.794,24.7-11.128,1.422-21.466-2.443-22.413-8.685-1.536-10.134,7.13-13.188,13.893-17.275.977-.592,1.949-1.194,2.92-1.789l-.228-1.791-14.246.611c4.6-3.572,7.355-7.257,10.677-7.871s7.214,1.859,10.856,2.985c-1.783,3.189-2.915,7.116-5.5,9.4-4.142,3.653-9.244,6.218-14.656,9.692C328.106,412.717,335.939,412.742,343.568,412.2ZM205.692,453.556c21.515-1.517,40.538-9.727,58.442-22.12a28.916,28.916,0,0,1-1.884,2.622,25.157,25.157,0,0,1-2.524,2.34c-16.683,14.265-36.249,21.941-57.794,24.7-11.128,1.422-21.466-2.443-22.413-8.685-1.536-10.134,7.13-13.188,13.893-17.275.977-.592,1.949-1.194,2.92-1.789l-.228-1.791-14.246.611c4.6-3.572,7.355-7.257,10.677-7.871s7.214,1.859,10.856,2.986c-1.783,3.189-2.915,7.116-5.5,9.4-4.142,3.653-9.244,6.218-14.642,9.692C190.23,454.066,198.063,454.094,205.692,453.556Zm254.79-91.419,4.25,9.792L462.1,373.6l-7.963-2.033c-5.01,13.733-15.592,20.722-29.453,23.767,2.038-1.471,4.055-2.986,6.12-4.4,2.361-1.628,5.157-2.844,7.081-4.885,5.225-5.518,10-11.456,15.134-17.066C455.288,366.5,457.983,364.407,460.483,362.138Zm-133.826-68.02c-.271-4.809-.1-9.64-.06-16.331,4.595,4.473-1.767,14.385,10.056,11.453a70.96,70.96,0,0,1-6.56,6.264C329.555,295.914,326.686,294.684,326.656,294.117Z" transform="translate(17 243)" fill="url(#linear-gradient-3)"/>
          </g>
        </g>
      </g>
    </g>
    <g transform="matrix(1, 0, 0, 1, -101.56, -655.56)" filter="url(#Rectangle)">
      <path id="Rectangle-2" data-name="Rectangle" d="M0,0H422.13V53.2H0Z" transform="translate(72 663.8)" fill="#29774d"/>
    </g>
    <g id="Layer_2-2" data-name="Layer 2" transform="translate(165 14.439)" opacity="0.42">
      <g id="Layer_1-2" data-name="Layer 1" transform="translate(0 0)">
        <path id="Path_4" data-name="Path 4" d="M33.516,20.2v1.278A14.366,14.366,0,0,1,27.986,32.79l-.111.085a20.871,20.871,0,0,1-2.747,1.7,24.591,24.591,0,0,0-4.095,2.67,25.716,25.716,0,0,0-4.276,4.421,25.714,25.714,0,0,0-4.276-4.421,24.592,24.592,0,0,0-4.1-2.67,20.872,20.872,0,0,1-2.747-1.7l-.111-.085A14.366,14.366,0,0,1,0,21.473V20.2A14.367,14.367,0,0,1,5.529,8.878l.111-.085a20.934,20.934,0,0,1,2.747-1.7,24.47,24.47,0,0,0,4.094-2.669A25.7,25.7,0,0,0,16.758,0a25.716,25.716,0,0,0,4.276,4.421,24.546,24.546,0,0,0,4.095,2.67,20.925,20.925,0,0,1,2.747,1.7l.111.085A14.366,14.366,0,0,1,33.516,20.2Z" transform="translate(0 0)" fill="url(#linear-gradient-4)"/>
      </g>
    </g>
    <g id="Layer_2-3" data-name="Layer 2" transform="translate(167.563 17.625)">
      <g id="Layer_1-3" data-name="Layer 1" transform="translate(0 0)">
        <path id="Path_4-2" data-name="Path 4" d="M28.391,17.107V18.19a12.169,12.169,0,0,1-4.684,9.586l-.094.072a17.68,17.68,0,0,1-2.327,1.443,20.831,20.831,0,0,0-3.469,2.262A21.784,21.784,0,0,0,14.2,35.3a21.782,21.782,0,0,0-3.622-3.745A20.832,20.832,0,0,0,7.1,29.29a17.681,17.681,0,0,1-2.327-1.443l-.094-.072A12.169,12.169,0,0,1,0,18.19V17.107A12.17,12.17,0,0,1,4.684,7.521l.094-.072A17.733,17.733,0,0,1,7.1,6.006a20.728,20.728,0,0,0,3.468-2.261A21.774,21.774,0,0,0,14.2,0a21.784,21.784,0,0,0,3.622,3.745,20.793,20.793,0,0,0,3.469,2.262,17.725,17.725,0,0,1,2.327,1.443l.094.072A12.169,12.169,0,0,1,28.391,17.107Z" transform="translate(0 0)" fill="url(#linear-gradient-4)"/>
      </g>
    </g>
    <g id="Group_8" data-name="Group 8" transform="translate(242 24.439)">
      <path id="Path_3968" data-name="Path 3968" d="M9.5,8.965c0-.477,0-.716.1-.849a.5.5,0,0,1,.365-.2c.166-.012.367.117.768.375l4.721,3.035c.348.224.523.336.583.478a.5.5,0,0,1,0,.389c-.06.142-.234.254-.583.478l-4.721,3.035c-.4.258-.6.387-.768.375a.5.5,0,0,1-.365-.2c-.1-.133-.1-.372-.1-.849Z" fill="none" stroke="#eecc54" stroke-linecap="round" stroke-linejoin="round" stroke-width="2"/>
      <path id="Path_3969" data-name="Path 3969" d="M3,7.8a7.453,7.453,0,0,1,.327-3.162A3,3,0,0,1,4.638,3.327,7.453,7.453,0,0,1,7.8,3h8.4a7.453,7.453,0,0,1,3.162.327,3,3,0,0,1,1.311,1.311A7.453,7.453,0,0,1,21,7.8v8.4a7.453,7.453,0,0,1-.327,3.162,3,3,0,0,1-1.311,1.311A7.453,7.453,0,0,1,16.2,21H7.8a7.453,7.453,0,0,1-3.162-.327,3,3,0,0,1-1.311-1.311A7.453,7.453,0,0,1,3,16.2Z" fill="none" stroke="#eecc54" stroke-linecap="round" stroke-linejoin="round" stroke-width="2"/>
    </g>
    <path id="Path_3970" data-name="Path 3970" d="M21,18V12A9,9,0,0,0,3,12v6m2.5,3A2.5,2.5,0,0,1,3,18.5v-2a2.5,2.5,0,0,1,5,0v2A2.5,2.5,0,0,1,5.5,21Zm13,0A2.5,2.5,0,0,1,16,18.5v-2a2.5,2.5,0,0,1,5,0v2A2.5,2.5,0,0,1,18.5,21Z" transform="translate(98 24.439)" fill="none" stroke="#e3fff0" stroke-linecap="round" stroke-linejoin="round" stroke-width="2"/>
    <path id="Path_3971" data-name="Path 3971" d="M12,21l-.1-.15a8.767,8.767,0,0,0-1.5-1.94,4,4,0,0,0-1.377-.737A8.766,8.766,0,0,0,6.575,18H5.2a4.968,4.968,0,0,1-2.108-.218,2,2,0,0,1-.874-.874A4.969,4.969,0,0,1,2,14.8V6.2a4.969,4.969,0,0,1,.218-2.108,2,2,0,0,1,.874-.874A4.969,4.969,0,0,1,5.2,3h.4c2.24,0,3.36,0,4.216.436a4,4,0,0,1,1.748,1.748C12,6.04,12,7.16,12,9.4M12,21V9.4M12,21l.1-.15a8.767,8.767,0,0,1,1.5-1.94,4,4,0,0,1,1.378-.737A8.766,8.766,0,0,1,17.425,18H18.8a4.968,4.968,0,0,0,2.108-.218,2,2,0,0,0,.874-.874A4.968,4.968,0,0,0,22,14.8V6.2a4.968,4.968,0,0,0-.218-2.108,2,2,0,0,0-.874-.874A4.969,4.969,0,0,0,18.8,3h-.4c-2.24,0-3.36,0-4.216.436a4,4,0,0,0-1.748,1.748C12,6.04,12,7.16,12,9.4" transform="translate(32 26.439)" fill="none" stroke="#e3fff0" stroke-linecap="round" stroke-linejoin="round" stroke-width="2"/>
    <path id="Path_3972" data-name="Path 3972" d="M21,15v1.2a7.453,7.453,0,0,1-.327,3.162,3,3,0,0,1-1.311,1.311A7.453,7.453,0,0,1,16.2,21H7.8a7.453,7.453,0,0,1-3.162-.327,3,3,0,0,1-1.311-1.311A7.453,7.453,0,0,1,3,16.2V15m14-5-5,5m0,0L7,10m5,5V3" transform="translate(306 24.439)" fill="none" stroke="#e3fff0" stroke-linecap="round" stroke-linejoin="round" stroke-width="2"/>
    <path id="Path_3973" data-name="Path 3973" d="M6.106,11.42h4.97m-3.1-8.844L3.767,5.853a2.7,2.7,0,0,0-.524.466,1.242,1.242,0,0,0-.2.4,2.7,2.7,0,0,0-.046.7v4.495a3.087,3.087,0,0,0,.135,1.31,1.242,1.242,0,0,0,.543.543,3.087,3.087,0,0,0,1.31.135h7.206a3.087,3.087,0,0,0,1.31-.135,1.242,1.242,0,0,0,.543-.543,3.087,3.087,0,0,0,.135-1.31V7.422a2.7,2.7,0,0,0-.046-.7,1.243,1.243,0,0,0-.2-.4,2.7,2.7,0,0,0-.524-.466L9.2,2.576a1.446,1.446,0,0,0-.448-.287.621.621,0,0,0-.325,0A1.446,1.446,0,0,0,7.981,2.576Z" transform="translate(173.167 26.751)" fill="#f8d148" stroke="#ebbd1b" stroke-linecap="round" stroke-linejoin="round" stroke-width="1"/>
  </g>
</svg>
